<?xml version="1.0" encoding="UTF-8" standalone="no"?>
<!-- Created with Inkscape (http://www.inkscape.org/) -->

<svg
   width="245mm"
   height="249mm"
   viewBox="0 0 245 249"
   version="1.1"
   id="svg1"
   xml:space="preserve"
   inkscape:version="1.4 (e7c3feb100, 2024-10-09)"
   sodipodi:docname="group_logo_white_full.svg"
   xmlns:inkscape="http://www.inkscape.org/namespaces/inkscape"
   xmlns:sodipodi="http://sodipodi.sourceforge.net/DTD/sodipodi-0.dtd"
   xmlns="http://www.w3.org/2000/svg"
   xmlns:svg="http://www.w3.org/2000/svg"><sodipodi:namedview
     id="namedview1"
     pagecolor="#ffffff"
     bordercolor="#111111"
     borderopacity="1"
     inkscape:showpageshadow="0"
     inkscape:pageopacity="0"
     inkscape:pagecheckerboard="1"
     inkscape:deskcolor="#d1d1d1"
     inkscape:document-units="mm"
     inkscape:zoom="1.9597984"
     inkscape:cx="258.18982"
     inkscape:cy="512.80784"
     inkscape:window-width="1536"
     inkscape:window-height="891"
     inkscape:window-x="0"
     inkscape:window-y="0"
     inkscape:window-maximized="1"
     inkscape:current-layer="layer2" /><defs
     id="defs1" /><g
     inkscape:groupmode="layer"
     id="layer2"
     inkscape:label="Layer 2"
     style="fill:#732822;fill-opacity:1;opacity:1"><rect
       style="display:inline;opacity:1;fill:#732822;fill-opacity:1;stroke-width:0.80292"
       id="rect1"
       width="245.42868"
       height="248.99513"
       x="-0.39627409"
       y="0" /></g><g
     inkscape:label="Layer 1"
     inkscape:groupmode="layer"
     id="layer1"
     style="display:inline"><path
       style="display:inline;fill:#ffffff;fill-opacity:1"
       d="M 117.71481,248.49347 C 89.390934,247.19699 63.2497,236.28131 40.985645,216.45401 22.284952,199.80006 8.3345729,176.14104 3.1777379,152.33403 0.94199593,142.01252 0.26227991,134.7775 0.44494391,123.24569 0.61812593,112.31245 1.4653839,105.15571 3.6765329,95.948635 9.1873519,73.00195 19.905692,53.548787 36.223146,36.878429 49.96413,22.840263 66.641208,12.449284 85.038764,6.462904 100.66721,1.377569 117.49282,-0.38843503 134.64815,1.255942 c 19.72657,1.890837 38.38992,8.50792 55.03333,19.512046 13.01285,8.603712 25.53003,21.274477 34.36564,34.787326 3.11993,4.771494 4.61651,7.42207 7.43635,13.170392 8.82009,17.980049 13.09905,36.307774 13.09905,56.106124 0,29.67602 -9.67278,56.40157 -28.67507,79.22824 -3.79339,4.55684 -11.6003,12.18041 -17.36243,16.95467 -19.27819,15.97313 -43.13345,25.79552 -66.09153,27.21314 -6.88257,0.42499 -10.0209,0.48154 -14.73868,0.26559 z m 16.78405,-3.30368 c 14.2219,-1.48042 26.26952,-5.0325 39.43818,-11.62782 12.71299,-6.3671 23.70027,-14.61996 34.92673,-26.23445 19.03177,-19.6896 30.46721,-45.37319 32.56159,-73.13223 0.6508,-8.62565 0.10418,-20.78996 -1.33688,-29.75084 C 237.94087,91.090125 232.41228,75.638441 225.41501,63.43404 218.50141,51.375588 208.5765,39.59801 197.60389,30.431456 180.87041,16.452263 158.81808,6.990265 137.0294,4.44075 125.34119,3.073101 112.04593,3.470871 100.91388,5.52126 77.044734,9.917669 55.452314,21.489414 38.204287,39.128401 28.973398,48.568525 22.007339,58.37414 16.021932,70.352889 0.65915393,101.09881 -1.1023171,137.33648 11.239536,168.7382 c 7.599004,19.33435 20.798538,37.02994 37.718009,50.56558 15.023703,12.01903 32.930789,20.50137 50.774538,24.05121 11.895307,2.36645 23.683087,2.98854 34.766777,1.8348 z m -20.88509,-3.05424 c -7.85264,-0.67584 -17.078236,-2.4766 -24.473956,-4.77711 C 71.127441,231.75551 54.319492,221.32946 39.994139,206.87314 28.419682,195.19286 19.001383,180.50835 13.159521,165.03403 11.019323,159.36492 8.0117939,147.02146 7.2608199,140.82466 5.6309679,127.37562 5.8887679,117.16029 8.1955219,103.78703 9.9907383,93.379395 13.435298,82.700525 18.253211,72.606068 24.289469,59.958941 34.328105,46.291067 44.266214,37.188664 50.584387,31.401793 58.825266,25.37374 66.121061,21.20224 73.733764,16.84954 84.981584,12.451024 94.122554,10.252108 110.18756,6.387579 125.67335,5.793301 141.92419,8.417689 c 7.32454,1.182859 16.19265,3.651962 23.6802,6.593165 4.65978,1.830416 13.22021,6.110905 17.4625,8.731809 17.66955,10.916309 33.0281,27.844451 42.57552,46.926582 9.2316,18.45092 13.27553,36.521725 12.7687,57.058535 -0.31379,12.71481 -2.09513,23.16189 -5.99015,35.13068 -6.05545,18.60744 -19.14092,37.66634 -35.29361,51.4049 -19.48839,16.57571 -41.30534,25.99763 -64.56815,27.88454 -3.90185,0.3165 -15.21024,0.30912 -18.94543,-0.0123 z m 17.21118,-1.30607 c 25.10724,-1.92086 47.62195,-11.82115 67.75752,-29.79469 6.92116,-6.178 14.0043,-14.42244 19.85846,-23.1143 15.61432,-23.18307 21.85533,-52.90767 17.24895,-82.15312 C 231.06532,76.406423 213.95418,48.203764 189.72662,30.010482 176.17349,19.832994 157.49461,12.157296 140.0301,9.588735 121.25537,6.827475 103.25451,8.400163 85.567934,14.346951 70.118472,19.541552 57.348037,27.208072 44.575488,38.956092 33.363,49.269186 22.760162,64.766544 16.664613,79.751285 c -4.285451,10.53496 -6.7707727,20.24462 -8.2845491,32.366085 -0.654171,5.23823 -0.643908,20.25657 0.01772,25.92916 1.3284484,11.3897 3.7560071,20.83437 8.0060481,31.14835 4.283721,10.39571 11.660109,22.0535 19.968057,31.5579 2.902553,3.32056 9.601587,9.9128 13.080423,12.87191 12.233179,10.40557 27.771662,18.82215 42.608282,23.0792 12.468056,3.57744 26.462096,5.06679 38.764356,4.12559 z m -12.84555,-6.67255 c -2.15892,-0.80478 -4.3139,-2.92818 -5.17148,-5.09569 -0.53385,-1.34928 -0.62897,-2.05867 -0.63834,-4.76055 l -0.011,-3.175 1.03292,-1.93336 c 1.28156,-2.39877 3.19773,-4.16909 5.49645,-5.07809 1.42715,-0.56436 2.09999,-0.66135 4.58313,-0.66069 2.64091,7.1e-4 3.04821,0.0684 4.39843,0.73105 3.36474,1.6513 5.0186,3.96553 5.57831,7.80565 0.40527,2.78057 0.0147,5.3136 -1.15876,7.51526 -1.03972,1.9507 -2.45478,3.23813 -4.68919,4.26623 -1.56723,0.72112 -2.06148,0.813 -4.79024,0.89052 -2.63461,0.0749 -3.25564,0.007 -4.63021,-0.50533 z m 7.07731,-2.08854 c 1.09339,-0.55349 2.05757,-1.84319 2.74118,-3.66666 0.63448,-1.69242 0.63912,-7.07448 0.008,-8.73125 -1.09167,-2.8636 -2.73441,-4.21519 -5.13817,-4.22752 -1.46186,-0.008 -2.62528,0.50318 -3.68226,1.61629 -1.3727,1.44561 -1.73999,2.646 -1.876,6.13126 -0.14248,3.65124 0.2282,5.82464 1.25391,7.35188 0.8857,1.31878 1.57362,1.79762 2.98766,2.07962 1.35612,0.27045 2.38049,0.11744 3.70615,-0.55362 z m -20.04499,1.37864 c -2.02274,-0.72045 -3.46482,-1.52237 -4.03022,-2.24116 -0.49088,-0.62405 -0.9213,-1.85754 -2.197436,-6.29736 -0.60904,-2.11891 -1.26906,-3.12136 -2.05512,-3.12136 -0.36745,0 -0.60875,0.61195 -1.19888,3.0404 -0.40636,1.67222 -0.66481,3.27365 -0.57432,3.55874 0.0905,0.28509 0.57508,0.77208 1.07689,1.08222 0.92563,0.57207 1.07771,0.90882 0.68791,1.52322 -0.16867,0.26585 -1.21783,0.0342 -4.75845,-1.05041 -4.45676,-1.36533 -4.54208,-1.40528 -4.54208,-2.12698 0,-0.70378 0.0557,-0.73552 1.29052,-0.73552 0.75838,0 1.41233,-0.14677 1.58592,-0.35594 0.16247,-0.19576 1.05001,-3.55928 1.9723,-7.47448 1.82741,-7.75749 1.82849,-7.79442 0.24449,-8.36844 -0.84223,-0.30521 -1.06066,-0.80242 -0.64209,-1.4616 0.32272,-0.50822 11.985956,2.091 13.307716,2.9657 2.03457,1.34641 2.94395,3.46066 2.50194,5.8168 -0.32737,1.74503 -2.80292,3.85087 -4.52694,3.85087 -0.42235,0 -0.65811,0.1287 -0.60585,0.33073 0.047,0.1819 0.66368,2.08779 1.37029,4.23531 1.26095,3.83223 1.89084,4.95391 3.18442,5.67063 0.37824,0.20957 0.45775,0.44722 0.32569,0.97342 -0.20494,0.81653 -0.56641,0.84424 -2.4167,0.18521 z m -3.41401,-13.63465 c 1.47671,-0.96758 2.1157,-3.89189 1.17677,-5.38541 -0.62898,-1.0005 -2.55674,-1.9779 -3.650266,-1.85073 -0.66138,0.0769 -0.75435,0.25191 -1.30901,2.46404 -0.32838,1.30968 -0.67307,2.94087 -0.76596,3.62486 -0.15707,1.15643 -0.12491,1.25309 0.45874,1.37876 0.34521,0.0743 0.86578,0.19072 1.15682,0.25865 0.835459,0.19498 2.247366,-0.041 2.932906,-0.49017 z m 42.66577,12.03555 c -1.15466,-0.34881 -3.04528,-1.78653 -3.66243,-2.78509 -0.38711,-0.62636 -0.99812,-2.98458 -1.8557,-7.1621 -0.70321,-3.42554 -1.4158,-6.39362 -1.58354,-6.59574 -0.16774,-0.20211 -0.7424,-0.40389 -1.27703,-0.44839 -0.82988,-0.0691 -0.98392,-0.18347 -1.05322,-0.78208 -0.0785,-0.67769 -0.0164,-0.71187 1.85208,-1.02084 1.06329,-0.17583 3.09071,-0.52847 4.50539,-0.78365 1.41467,-0.25519 2.63506,-0.40104 2.71197,-0.32413 0.0769,0.0769 0.13985,0.41607 0.13985,0.75366 0,0.4481 -0.24312,0.7154 -0.90054,0.99009 -0.4953,0.20695 -0.97503,0.61093 -1.06605,0.89773 -0.091,0.28681 0.073,1.59233 0.36456,2.90116 0.29153,1.30883 0.82178,3.8715 1.17832,5.69481 0.72105,3.68744 1.08281,4.57081 2.28659,5.58373 0.63524,0.53452 1.11065,0.69298 2.07904,0.69298 2.76599,0 4.69463,-1.25296 5.36313,-3.4842 0.28866,-0.96348 0.2155,-1.60711 -0.68291,-6.00734 -0.55341,-2.71054 -1.20174,-5.51877 -1.44073,-6.24051 -0.42038,-1.26952 -0.4775,-1.32125 -1.75405,-1.58864 -1.35572,-0.28398 -1.80986,-0.84384 -1.13728,-1.40203 0.45554,-0.37806 5.74768,-1.71311 6.16143,-1.55434 0.17764,0.0682 0.39029,0.38132 0.47255,0.69589 0.11727,0.44844 -0.0462,0.68747 -0.75704,1.10686 -1.18601,0.69977 -1.17856,0.97548 0.19943,7.38038 0.6371,2.96124 1.1097,5.86995 1.11469,6.86059 0.0171,3.38606 -1.85793,5.37742 -6.1047,6.48356 -1.62162,0.42237 -4.00089,0.48592 -5.15381,0.13764 z m 20.46779,-4.82203 c -0.50842,-0.50842 -0.37338,-0.99255 0.47625,-1.70748 0.56243,-0.47325 0.79375,-0.90305 0.79375,-1.4748 0,-0.80088 -5.50933,-12.83354 -6.30218,-13.76428 -0.44759,-0.52544 -1.41172,-0.60131 -2.21029,-0.17393 -0.59485,0.31836 -0.86285,0.14199 -1.13028,-0.74382 -0.16282,-0.53929 0.19263,-0.77083 4.37035,-2.8469 5.36966,-2.6684 6.88457,-3.16761 9.0238,-2.97363 2.13133,0.19326 3.6194,1.1122 4.53998,2.8036 1.90181,3.49425 0.14163,7.29214 -4.45492,9.61225 -0.87313,0.44071 -1.62421,0.83381 -1.66907,0.87355 -0.0449,0.0397 0.45897,1.22897 1.11962,2.64273 l 1.20119,2.57047 0.99705,-0.14677 c 2.21843,-0.32656 2.24334,-0.32388 2.4659,0.26456 0.19839,0.52456 -0.14926,0.76751 -4.2592,2.97657 -2.46137,1.32296 -4.5133,2.40538 -4.55984,2.40538 -0.0465,0 -0.22749,-0.14287 -0.40211,-0.3175 z m 4.18042,-13.15623 c 0.99351,-0.69925 1.85281,-2.11214 1.84627,-3.03571 -0.0145,-2.04975 -1.84699,-4.33663 -3.67098,-4.58128 -1.19034,-0.15965 -3.46696,0.53792 -3.46696,1.06231 0,0.16541 0.78285,1.88715 1.73966,3.8261 1.8946,3.83934 1.93247,3.86843 3.55201,2.72858 z m -93.133336,10.12419 c -0.80037,-0.21508 -2.54814,-0.9071 -3.88395,-1.53784 -2.853868,-1.34753 -4.410635,-2.76883 -5.530135,-5.04891 -0.704526,-1.4349 -0.772375,-1.81713 -0.772375,-4.35121 0,-2.45534 0.08178,-2.95258 0.703899,-4.27967 1.374552,-2.93218 4.344638,-5.41813 7.412221,-6.20401 3.61008,-0.92486 8.96466,0.57748 11.98674,3.36313 1.83217,1.68884 1.91911,2.16795 0.82791,4.56243 -0.50854,1.11593 -1.02397,2.02896 -1.14539,2.02896 -0.12142,0 -0.47032,-0.1748 -0.77534,-0.38844 -0.41674,-0.2919 -0.58493,-0.75452 -0.67672,-1.86136 -0.0887,-1.06967 -0.33531,-1.77622 -0.90075,-2.58074 -2.53322,-3.60433 -6.73935,-3.76455 -9.78876,-0.37287 -1.40594,1.56374 -2.00127,2.65027 -2.621926,4.78526 -1.485362,5.10946 0.939086,9.41398 5.302266,9.41398 h 1.21303 l 0.79183,-1.69212 c 0.92477,-1.97618 0.84081,-2.90258 -0.3233,-3.56701 -0.56067,-0.32001 -0.71215,-0.56423 -0.5946,-0.95858 0.29174,-0.9787 0.58104,-1.0516 1.88392,-0.47468 0.69138,0.30615 2.26908,1.00123 3.50601,1.54463 1.23693,0.54339 2.39529,1.10301 2.57413,1.24358 0.55302,0.43467 -0.096,1.25834 -0.99148,1.25834 -0.66977,0 -0.87431,0.18615 -1.44752,1.31731 -0.36714,0.72452 -0.91348,1.97468 -1.21409,2.77813 l -0.54656,1.46081 -1.76693,-0.024 c -0.97181,-0.0132 -2.42177,-0.20001 -3.22213,-0.41508 z m 40.348956,-15.33345 c -7.08923,-0.72717 -11.94588,-1.64898 -18.091126,-3.43375 C 81.636284,200.4636 66.917229,190.55571 56.006897,176.93535 44.382692,162.42379 38.224247,144.6587 38.21025,125.59786 38.194505,104.15585 45.221936,85.352075 59.187906,69.466505 70.511489,56.586515 85.989714,47.107053 102.26121,43.086759 c 8.22319,-2.031754 14.38971,-2.692672 22.86194,-2.450308 16.09663,0.460475 30.02067,4.91652 43.92083,14.055774 4.50928,2.964819 7.59402,5.473692 11.87347,9.656877 13.88567,13.57335 22.27261,30.570603 24.8105,50.281808 0.53834,4.18116 0.45754,17.1775 -0.13324,21.43125 -1.38002,9.93646 -3.71089,17.63348 -7.97227,26.32604 -11.09894,22.64015 -31.73998,38.99649 -56.08679,44.44421 -6.31699,1.41346 -9.5372,1.75995 -17.20625,1.85138 -3.92907,0.0469 -7.62,0.0363 -8.20209,-0.0234 z m 8.40052,-1.60057 c -0.1819,-0.0734 -0.47955,-0.0734 -0.66145,0 -0.1819,0.0734 -0.0331,0.13345 0.33073,0.13345 0.3638,0 0.51263,-0.06 0.33072,-0.13345 z m 8.11307,-1.00268 c 16.79795,-2.02005 31.07149,-8.45253 44.25048,-19.94181 1.11461,-0.97171 2.00758,-1.78537 1.98437,-1.80815 -0.0471,-0.0463 -7.20436,-0.7481 -11.68386,-1.1457 -6.72303,-0.59674 -29.34114,-2.75509 -32.08072,-3.06132 l -1.38907,-0.15527 v 2.79716 c 0,2.17588 0.0796,2.79717 0.35824,2.79717 0.19703,0 2.54851,0.22944 5.22552,0.50988 2.67701,0.28043 6.83182,0.70285 9.23291,0.9387 2.40109,0.23585 7.62114,0.78031 11.6001,1.20991 3.97897,0.4296 7.40201,0.78109 7.60677,0.78109 0.20476,0 0.3723,0.23812 0.3723,0.52917 0,0.33281 -0.17639,0.52916 -0.47538,0.52916 -2.2532,0 -23.65427,-2.00057 -29.73212,-2.77935 -1.69823,-0.21761 -3.39488,-0.39565 -3.77031,-0.39565 h -0.68261 v 4.44435 4.44435 l -10.78774,3.21923 c -5.93325,1.77057 -12.33286,3.64897 -14.22135,4.17421 -4.91431,1.36681 -4.83316,1.29948 -2.16302,1.79477 l 2.32352,0.43101 1.77482,-0.684 c 8.47643,-3.26676 36.16564,-12.26767 37.73862,-12.26767 0.92786,0 0.31059,0.52359 -1.50183,1.27389 -2.41788,1.00095 -34.3867,11.6907 -34.96225,11.6907 -0.23417,0 -0.42577,0.1042 -0.42577,0.23156 0,0.12736 1.51805,0.3683 3.37344,0.53543 1.85539,0.16712 3.73062,0.35161 4.16719,0.40996 1.58415,0.21173 10.66334,-0.11743 13.86775,-0.50278 z M 94.299184,185.92297 c 0,-16.8397 -0.0339,-16.48963 1.64904,-17.01231 0.47548,-0.14767 2.82903,-0.45848 5.230136,-0.69069 12.50661,-1.20951 27.71822,-3.08453 28.3894,-3.49934 0.52409,-0.3239 -0.56814,-0.60474 -2.36693,-0.60859 -1.79549,-0.004 -4.23039,0.2311 -21.65685,2.08972 -12.711466,1.35574 -11.469616,1.3828 -23.415626,-0.51025 -7.25053,-1.14897 -9.36393,-1.3479 -10.87563,-1.02369 -0.712364,0.15277 -1.295205,0.37967 -1.295205,0.50421 0,0.12455 0.565547,0.29887 1.256775,0.38739 4.66692,0.59764 18.66813,2.82194 19.5257,3.10194 1.94021,0.6335 1.89277,0.24343 2.08355,17.1318 0.12776,11.31039 0.24712,14.98809 0.49146,15.14334 0.98715,0.62722 0.98418,0.67254 0.98418,-15.01353 z m 12.900036,2.85741 c 0.0614,-0.18703 -0.11081,-0.33073 -0.39644,-0.33073 -0.27781,0 -0.78976,-0.303 -1.13768,-0.67335 -0.52875,-0.56283 -0.57867,-0.74739 -0.30411,-1.12448 1.10053,-1.51153 1.49567,-2.86148 1.50076,-5.12717 0.004,-1.91973 -0.0854,-2.41703 -0.54889,-3.04271 -2.0763,-2.80284 -6.652297,-2.48366 -8.243576,0.57501 -1.08757,2.09046 -1.46855,5.84279 -0.73689,7.25766 0.95866,1.85386 2.929476,2.69186 5.224906,2.22165 1.06904,-0.21899 1.37466,-0.18377 1.99241,0.22956 0.80969,0.54176 2.47332,0.5509 2.64951,0.0146 z m -6.66342,-1.80483 c -0.554717,-0.55471 -0.52409,-0.83056 0.13113,-1.18123 0.63038,-0.33736 1.61497,0.16355 2.09893,1.06783 0.26106,0.4878 0.20121,0.52917 -0.76555,0.52917 -0.60062,0 -1.2264,-0.17766 -1.46451,-0.41577 z m 3.13805,-1.46753 c -0.60686,-1.03558 -2.45621,-1.3428 -3.53494,-0.58724 l -0.628017,0.43988 0.15647,-2.22581 c 0.28178,-4.00856 1.005377,-5.3652 2.782837,-5.21746 0.8594,0.0714 1.05126,0.22466 1.59262,1.27185 0.54004,1.04465 0.59646,1.43391 0.46016,3.175 -0.2051,2.61984 -0.49407,3.71555 -0.82913,3.14378 z m 5.42873,2.03159 c 0.17385,-0.20948 0.27773,-0.7155 0.23083,-1.12448 -0.0679,-0.5919 -0.21891,-0.7436 -0.74035,-0.7436 -0.71868,0 -1.2799,1.04195 -0.9809,1.82112 0.20358,0.53055 1.06651,0.55773 1.49042,0.047 z m 4.64348,-0.1533 c 3.56008,-0.4218 3.51343,-0.40327 3.82312,-1.51841 0.40213,-1.44798 0.35362,-2.44533 -0.11895,-2.44533 -0.21828,0 -0.39952,0.20836 -0.40276,0.46302 -0.0127,0.99826 -0.86114,1.63124 -2.43058,1.8133 l -1.51042,0.17522 0.11794,-0.89504 c 0.0649,-0.49227 0.17452,-1.37129 0.24366,-1.95337 0.0692,-0.58209 0.13021,-1.0881 0.13571,-1.12448 0.006,-0.0364 0.48624,-0.0662 1.06833,-0.0662 0.87121,0 1.05833,0.0908 1.05833,0.51355 0,0.28246 0.11906,0.58714 0.26458,0.67708 0.16852,0.10414 0.26459,-0.65872 0.26459,-2.10106 0,-2.18124 -0.40814,-3.17216 -0.57855,-1.40467 -0.0781,0.80987 -0.14952,0.86468 -1.22788,0.94225 l -1.14497,0.0824 0.0866,-1.80215 0.0866,-1.80215 1.19063,-0.16085 c 1.30048,-0.17568 2.11666,0.094 2.11666,0.69932 0,0.21697 0.24386,0.38757 0.554,0.38757 0.51567,0 0.54105,-0.0961 0.36696,-1.38906 -0.10287,-0.76399 -0.21712,-1.42268 -0.25388,-1.46377 -0.10513,-0.11751 -6.19699,0.5103 -6.97772,0.7191 -0.88586,0.23692 -0.90902,0.86992 -0.0394,1.07596 l 0.66146,0.15671 v 4.58582 c 0,4.46228 -0.016,4.59647 -0.59531,4.98072 -0.32742,0.21719 -0.59531,0.62796 -0.59531,0.91281 0,0.42426 0.13157,0.49133 0.7276,0.37087 0.40018,-0.0809 1.79917,-0.274 3.10885,-0.42917 z m 6.30698,-1.12144 c 0.61756,-0.45157 0.69419,-1.76254 0.12466,-2.13248 -0.94939,-0.61668 -2.04824,1.31878 -1.21934,2.14768 0.39888,0.39889 0.53089,0.39705 1.09468,-0.0152 z m 4.52903,-0.59278 c 3.57489,-0.66698 5.15438,-2.5624 5.37976,-6.45584 0.14132,-2.44109 -0.3095,-3.73418 -1.58162,-4.53665 -0.81071,-0.51141 -1.11947,-0.53968 -4.15365,-0.38029 -1.80282,0.0947 -3.43993,0.23439 -3.63803,0.31041 -0.58455,0.22432 -0.41195,0.85227 0.28214,1.02648 0.35327,0.0887 0.70415,0.32236 0.77973,0.51932 0.0756,0.19697 0.28459,2.09012 0.46445,4.20701 0.32385,3.81158 0.32142,3.85484 -0.25057,4.4637 -0.78215,0.83256 -0.77276,1.56246 0.0177,1.37769 0.32742,-0.0765 1.54245,-0.31585 2.70007,-0.53183 z m -0.4751,-4.64453 c -0.29229,-5.43594 -0.32124,-5.22639 0.74985,-5.42733 2.25128,-0.42234 3.30645,0.75189 3.30805,3.68131 0.002,2.77057 -1.07804,4.53508 -2.96163,4.84074 l -0.92183,0.1496 z m 7.24119,3.17511 c 0.43902,-0.82032 0.21828,-1.69286 -0.45242,-1.78834 -0.71268,-0.10146 -1.25417,0.79142 -1.02755,1.69434 0.19932,0.79415 1.07548,0.84979 1.47997,0.094 z m -66.972981,-8.46914 c -0.358688,-0.22168 -6.298501,-0.62665 -6.48314,-0.44201 -0.152553,0.15256 1.973643,2.76285 4.657147,5.71749 l 1.984375,2.18488 0.07391,-3.63556 c 0.05162,-2.5393 -0.01842,-3.69262 -0.232292,-3.8248 z m 117.933771,4.96911 c 4.53915,-4.86066 9.46449,-11.93386 12.56879,-18.04986 6.28056,-12.37375 9.07235,-24.1938 9.03014,-38.23229 -0.0347,-11.54533 -1.87465,-20.78338 -6.26897,-31.475615 C 186.59568,66.074453 161.26349,46.876814 132.11809,43.290843 127.78614,42.757852 118.91499,42.68993 114.8044,43.15828 100.41037,44.7983 87.982204,49.416657 76.134434,57.52819 67.808499,63.228511 59.922996,71.232729 54.155308,79.838205 45.039422,93.439245 40.598976,108.33724 40.591254,125.34653 c -0.0063,13.92106 2.815863,25.48323 9.246881,37.88345 1.916361,3.6951 5.640724,9.55251 6.21364,9.77236 0.493756,0.18947 8.355973,0.80056 8.496172,0.66036 0.06485,-0.0649 0.117905,-2.24501 0.117905,-4.84481 0,-5.07751 0.163578,-5.91209 1.378008,-7.03064 0.419528,-0.3864 1.2582,-0.70547 2.349204,-0.89373 0.93321,-0.16104 1.722796,-0.31354 1.754635,-0.33889 0.03184,-0.0254 -0.233227,-0.75427 -0.589033,-1.61981 -0.757959,-1.84382 -0.814049,-2.7555 -0.243501,-3.95785 0.391577,-0.82518 0.366035,-1.14571 -0.43541,-5.46394 -0.668354,-3.60112 -0.983046,-4.74543 -1.463785,-5.32273 -1.375527,-1.65179 -0.969956,-3.79357 0.986768,-5.21101 0.62247,-0.45092 2.477098,-2.07591 4.121396,-3.61109 l 2.98963,-2.79124 0.0201,-1.76313 c 0.0111,-0.96972 0.1599,-2.14223 0.33073,-2.60558 0.48115,-1.30502 1.91614,-3.18592 2.76588,-3.62534 0.93786,-0.48499 6.69683,-0.95359 11.73777,-0.95509 2.63635,-7.9e-4 3.64722,-0.0903 3.74882,-0.33181 2.26439,-5.38376 2.2772,-5.4276 1.73094,-5.92196 -0.33706,-0.30503 -0.85854,-0.44584 -1.49615,-0.40399 -1.06284,0.0698 -13.68107,1.89709 -17.82315,2.58108 -2.35848,0.38946 -2.6732,0.38842 -4.05525,-0.0133 -1.600796,-0.46537 -3.400302,-1.88583 -4.363583,-3.44445 -0.710924,-1.1503 -2.617049,-7.08243 -2.818281,-8.7709 -0.243528,-2.04335 0.460636,-3.87022 2.126632,-5.51729 1.416986,-1.40088 9.020992,-6.572545 14.826682,-10.083965 l 3.42387,-2.07085 4.64592,-0.59565 c 6.81588,-0.87387 8.08486,-0.79992 9.946666,0.57959 l 0.80284,0.59486 1.37921,-1.53593 c 1.93662,-2.15667 2.62587,-2.34185 9.05367,-2.43235 4.88492,-0.0688 5.21728,-0.0417 6.24797,0.50974 1.96283,1.05008 2.61927,2.4852 4.36654,9.54618 1.59548,6.447515 1.7758,7.790045 1.2552,9.344965 -0.55659,1.66238 -1.43969,2.47118 -4.80041,4.39649 -3.5657,2.04275 -4.10338,2.22027 -10.64118,3.51308 -5.2593,1.04 -5.14954,1.00643 -4.60728,1.40922 0.60586,0.45004 1.03541,1.35811 1.03541,2.18888 0,0.39667 -0.58042,1.80348 -1.28982,3.12625 -2.10463,3.92438 -2.90665,3.48894 6.40073,3.47521 l 8.02252,-0.0118 0.97635,0.74293 c 1.18375,0.90075 2.0298,2.47068 2.0298,3.7665 0,0.52724 0.12014,0.91858 0.26698,0.86963 0.14683,-0.0489 3.34682,-2.55486 7.11107,-5.56871 5.30413,-4.24675 6.87978,-5.6456 7.00269,-6.21691 0.0872,-0.40545 0.30132,-3.32835 0.47576,-6.49532 l 0.31715,-5.75813 -0.67745,-0.72416 c -0.3726,-0.39829 -0.88479,-1.14088 -1.13819,-1.6502 -0.2534,-0.50933 -0.4946,-0.96514 -0.53601,-1.01293 -0.0414,-0.0478 -0.92633,0.22011 -1.9665,0.59531 -1.04016,0.37521 -2.21366,0.6822 -2.60777,0.6822 -1.00937,0 -2.67139,-1.21022 -3.11278,-2.26659 -0.51616,-1.235345 -0.47115,-3.263285 0.092,-4.143635 0.2539,-0.39694 1.97217,-1.90957 3.81838,-3.36142 3.14515,-2.47331 3.36197,-2.70302 3.43958,-3.64393 0.0795,-0.9638 0.31927,-1.19365 5.95792,-5.71159 l 5.87509,-4.70739 0.17777,-1.510321 0.17776,-1.510325 3.58123,-3.042708 c 8.10666,-6.887627 12.38086,-10.347383 12.96403,-10.493748 2.88112,-0.723117 7.46301,2.834586 10.674,8.288058 3.01847,5.126499 3.67023,9.447834 1.7862,11.842994 -0.36869,0.46871 -3.51972,2.19147 -9.25797,5.06162 -9.09303,4.54814 -9.82991,4.80691 -11.32669,3.97766 -0.59013,-0.32695 -0.81756,-0.24736 -2.91041,1.01849 -1.24865,0.75523 -2.90813,1.71883 -3.68774,2.14134 -1.66697,0.90341 -1.88765,1.35864 -1.89612,3.91154 -0.0102,3.068345 -0.28835,3.836855 -1.93464,5.345225 l -1.44896,1.32757 -0.19414,7.45942 c -0.16077,6.17756 -0.26734,7.57225 -0.62015,8.11601 -0.38993,0.60099 -11.7527,9.75812 -17.87536,14.40557 l -2.56169,1.94446 0.18382,2.98504 c 0.1011,1.64178 0.0991,3.88921 -0.004,4.99431 -0.3301,3.52266 -1.42832,4.45188 -5.87867,4.97403 l -2.66477,0.31265 -0.69525,2.32258 c -0.90568,3.02553 -0.89877,3.14434 0.18277,3.14434 0.48291,0 1.5247,0.19145 2.3151,0.42544 1.17589,0.34812 1.74966,0.75061 3.15688,2.21455 0.94588,0.98401 1.95791,1.85527 2.24895,1.93615 0.65107,0.18092 2.98691,0.535 8.33438,1.26336 2.25557,0.30723 4.37888,0.73562 4.71845,0.952 1.22125,0.77816 1.36696,1.69806 1.36696,8.62949 v 6.44216 l 3.90261,0.32602 c 2.14643,0.17931 7.95073,0.73142 12.89844,1.22691 4.9477,0.49549 11.25802,1.09902 14.02291,1.34117 2.7649,0.24216 7.11068,0.64949 9.65729,0.90518 6.99869,0.7027 6.30331,0.79967 8.1056,-1.13028 z m 0.11737,-55.53534 c -0.0115,-0.2441 -0.32493,-0.68298 -0.69653,-0.97529 -0.67436,-0.53044 -0.67458,-0.53203 -0.11737,-0.83025 0.30705,-0.16433 0.66308,-0.55889 0.79117,-0.8768 l 0.23289,-0.57801 0.0168,0.58686 c 0.0102,0.35737 0.29446,0.73236 0.72687,0.95892 0.68462,0.35871 0.69001,0.37843 0.1503,0.54973 -0.30789,0.0977 -0.67756,0.49964 -0.8215,0.89316 -0.15377,0.4204 -0.27032,0.53245 -0.2826,0.27168 z M 55.149235,124.36044 c -0.0046,-0.2513 -0.319153,-0.66054 -0.698984,-0.90942 l -0.690601,-0.4525 0.583264,-0.21576 c 0.320796,-0.11867 0.645453,-0.45357 0.721461,-0.74423 0.17911,-0.68491 0.505539,-0.67525 0.687442,0.0204 0.07893,0.30184 0.390476,0.61338 0.692317,0.69231 0.619577,0.16203 0.74743,0.61097 0.173995,0.61097 -0.206144,0 -0.61909,0.32742 -0.917659,0.7276 -0.414127,0.55507 -0.544841,0.61926 -0.551235,0.27068 z m 108.497155,-10.9802 c -0.0145,-0.32407 -0.33714,-0.79284 -0.71697,-1.04172 -0.68081,-0.44608 -0.6826,-0.45546 -0.12607,-0.66133 0.31049,-0.11486 0.66142,-0.47075 0.77984,-0.79086 l 0.2153,-0.58203 0.15572,0.59544 c 0.0856,0.32749 0.40267,0.66002 0.70451,0.73895 0.70731,0.18497 0.69538,0.42023 -0.0379,0.74666 -0.32267,0.14365 -0.66799,0.55884 -0.76738,0.92264 -0.16909,0.61895 -0.1824,0.62359 -0.20708,0.0722 z m 16.92373,-15.972385 c -0.009,-0.2321 -0.25496,-0.63757 -0.54608,-0.90103 l -0.52931,-0.47902 0.52931,-0.37074 c 0.29112,-0.20391 0.53686,-0.57235 0.54608,-0.81876 0.0121,-0.32228 0.0846,-0.27919 0.25836,0.15352 0.13288,0.33084 0.50787,0.70004 0.83333,0.82043 l 0.59173,0.2189 -0.60044,0.32134 c -0.33023,0.17674 -0.70523,0.58145 -0.83332,0.89936 -0.15618,0.38764 -0.23841,0.43902 -0.24966,0.156 z M 76.643174,78.356725 c -0.18915,-0.501123 -0.60201,-0.913981 -1.10313,-1.103133 l -0.80085,-0.302286 0.79315,-0.333496 c 0.44881,-0.18871 0.93794,-0.677841 1.12665,-1.126649 l 0.3335,-0.793153 0.29738,0.787857 c 0.17751,0.470263 0.62219,0.924427 1.10313,1.126649 l 0.80575,0.338792 -0.78785,0.297383 c -0.47027,0.177504 -0.92443,0.622189 -1.12665,1.103136 l -0.33879,0.80575 z m 28.799206,-9.54567 c -0.0169,-0.244099 -0.3444,-0.690583 -0.72783,-0.992187 -0.52659,-0.414219 -0.5882,-0.54837 -0.25181,-0.54837 0.24937,0 0.60979,-0.378386 0.81907,-0.859896 0.30456,-0.700697 0.37567,-0.752459 0.38411,-0.279586 0.006,0.31917 0.2569,0.753001 0.55825,0.964068 0.54102,0.378951 0.54142,0.38829 0.0316,0.745381 -0.28396,0.198892 -0.57623,0.598499 -0.64949,0.888015 -0.10068,0.397838 -0.1407,0.418004 -0.1639,0.08257 z m 25.65066,-9.894957 c -0.0179,-0.587382 -1.03569,-1.699766 -1.55518,-1.699766 -0.17252,0 -0.31367,-0.119063 -0.31367,-0.264584 0,-0.14552 0.21967,-0.264583 0.48816,-0.264583 0.61172,0 1.36059,-0.804328 1.37428,-1.476042 0.007,-0.348065 0.12723,-0.239496 0.38107,0.344356 0.22602,0.519883 0.7125,1.001979 1.24641,1.235188 0.68233,0.298035 0.7533,0.387264 0.3214,0.404082 -0.6313,0.02458 -1.28118,0.655156 -1.66395,1.614523 -0.23403,0.586551 -0.26352,0.597863 -0.27852,0.106826 z M 116.96951,179.93338 c -0.0845,-0.21107 -0.14715,-0.14837 -0.15985,0.15985 -0.0115,0.27891 0.0511,0.43518 0.13896,0.34727 0.0879,-0.0879 0.0973,-0.31613 0.0209,-0.50712 z M 99.789283,164.47606 c 0.763997,-0.0779 1.389077,-0.24975 1.389077,-0.38197 0,-0.40105 -1.748316,-2.98641 -2.477516,-3.66369 -0.64947,-0.60323 -0.79881,-0.62602 -2.99572,-0.45716 -1.2717,0.0978 -2.76619,0.25033 -3.32111,0.33907 l -1.00893,0.16133 1.03334,0.8845 c 0.56833,0.48647 1.41995,1.48699 1.89249,2.22338 l 0.85917,1.3389 1.62007,-0.1514 c 0.89104,-0.0833 2.24515,-0.2151 3.009129,-0.29296 z m 16.721147,-1.86318 c 0.22594,-0.20771 -1.44461,-3.05071 -2.10272,-3.57847 -0.60436,-0.48466 -0.88904,-0.51354 -3.3073,-0.3355 -1.4553,0.10715 -2.79484,0.19724 -2.97674,0.20021 -0.48831,0.008 -0.42374,0.11629 0.61084,1.02466 0.51786,0.45469 1.30447,1.35418 1.74803,1.99887 l 0.80647,1.17215 2.55144,-0.18648 c 1.4033,-0.10256 2.60479,-0.23551 2.66998,-0.29544 z m -38.151016,-1.61375 c -0.19595,-2.15613 -0.73379,-3.76127 -1.40843,-4.2033 -0.59145,-0.38753 -3.80731,-0.5624 -4.33581,-0.23577 -0.15202,0.094 -0.27641,0.39598 -0.27641,0.67117 0,0.42293 0.23332,0.51263 1.5079,0.5797 1.38239,0.0728 1.54906,0.15001 2.00237,0.92835 0.27196,0.46695 0.56256,1.50875 0.64578,2.3151 l 0.15132,1.46611 h 0.92577 0.92578 z m 7.07623,-2.57189 c 0.51529,-0.61102 3.05762,-1.463 4.36565,-1.463 0.55839,0 0.54985,-0.0332 -0.18709,-0.72761 -0.4445,-0.41882 -0.9227,-1.27026 -1.12685,-2.00633 -0.42448,-1.53048 -0.38859,-1.51372 -4.90379,-2.29126 -3.80953,-0.65603 -4.38512,-0.87855 -5.59278,-2.16212 -1.47414,-1.56682 -1.78114,-2.46882 -1.89879,-5.57883 -0.0592,-1.56435 -0.18372,-2.83969 -0.27677,-2.8341 -0.093,0.006 -0.7297,0.5116 -1.41481,1.12448 l -1.24564,1.11431 1.04446,3.96875 c 0.57445,2.18281 1.17717,4.57381 1.33938,5.31334 0.286,1.30387 0.34416,1.36796 1.92098,2.11666 1.76727,0.83914 2.81667,2.06141 2.81667,3.28065 0,0.39079 0.0893,0.80173 0.19844,0.91319 0.10914,0.11146 1.15094,0.12541 2.31511,0.031 1.78272,-0.14457 2.20015,-0.27064 2.64583,-0.79913 z m 8.88574,-1.06613 c 0.003,-0.14552 -0.18609,-0.30442 -0.42055,-0.3531 -0.6199,-0.12872 -1.25093,0.17137 -1.04864,0.49869 0.21341,0.3453 1.46121,0.22166 1.46919,-0.14559 z m 7.627656,-0.15707 c 0.4121,-0.30468 1.38954,-0.63626 2.1721,-0.73686 1.26743,-0.16293 1.36217,-0.21671 0.86735,-0.49238 -0.34264,-0.19089 -0.8345,-1.07445 -1.28362,-2.30585 -0.82845,-2.27148 -0.54931,-2.15676 -4.446446,-1.82734 l -1.99976,0.16905 -0.182,1.22002 c -0.1001,0.67101 -0.34023,1.59989 -0.53363,2.06418 -0.26725,0.64162 -0.27708,0.89936 -0.041,1.07423 0.48549,0.35957 2.35729,1.09322 3.088779,1.21065 1.332397,0.21389 1.623437,0.16752 2.358187,-0.3757 z m 6.527,-0.76897 c 0.20638,0 0.37523,-0.12697 0.37523,-0.28216 0,-0.41385 -1.39296,-0.17988 -1.53705,0.25818 -0.0861,0.26166 0.0129,0.32085 0.33197,0.19843 0.25003,-0.0959 0.62347,-0.17445 0.82985,-0.17445 z M 73.327014,152.8939 c -0.065,-0.30793 -0.5113,-2.42402 -0.99173,-4.70242 -0.8716,-4.13348 -0.87487,-4.14193 -1.493345,-3.86013 -0.34091,0.15532 -0.619837,0.35339 -0.619837,0.44013 0,0.15176 1.449162,7.23986 1.714632,8.38652 0.10197,0.44045 0.27609,0.53136 0.819,0.42757 0.53688,-0.10263 0.66334,-0.25574 0.57128,-0.69167 z m 26.660709,-3.08669 c 7.457587,-0.73434 15.463277,-1.57318 16.428007,-1.72134 0.44967,-0.0691 1.10451,-0.43077 1.45521,-0.8038 0.63587,-0.67636 0.63787,-0.69769 0.72525,-7.73501 0.0482,-3.88123 0.006,-8.18002 -0.0945,-9.55287 -0.16516,-2.26362 -0.25151,-2.56548 -0.92718,-3.24115 l -0.74505,-0.74505 -11.33129,0.0193 c -12.191096,0.0208 -13.974156,0.13423 -14.553126,0.92602 -0.30122,0.41195 -0.3532,2.46277 -0.29209,11.52432 0.0715,10.59643 0.0948,11.04585 0.6035,11.60827 0.46796,0.5174 0.69749,0.56526 1.98438,0.41371 0.80036,-0.0942 3.83646,-0.40584 6.746869,-0.69242 z m -4.456909,-4.43933 c -0.38435,-0.4247 -0.43788,-1.3442 -0.43788,-7.52172 0,-5.76117 0.0689,-7.10674 0.37965,-7.41752 0.38682,-0.38682 2.37999,-0.52456 13.907856,-0.96115 4.86524,-0.18425 5.68864,-0.0878 5.91309,0.69253 0.0756,0.263 0.21555,3.45474 0.3109,7.09276 0.14665,5.59587 0.11354,6.6938 -0.21502,7.12891 -0.35769,0.47371 -1.0857,0.55089 -9.21794,0.97721 -4.85626,0.25458 -9.138546,0.46961 -9.516176,0.47785 -0.37763,0.008 -0.88364,-0.20275 -1.12448,-0.46887 z m 10.013166,-1.49902 c 3.20146,-0.21468 6.32685,-0.39214 6.94531,-0.39435 l 1.12448,-0.004 -0.004,-5.75469 c -0.002,-3.16508 -0.0674,-5.99281 -0.14542,-6.28385 -0.14077,-0.52532 -0.20333,-0.52639 -8.59534,-0.14734 l -8.453546,0.38183 0.002,4.51296 c 0.001,2.48213 0.0778,5.31664 0.17055,6.2989 l 0.16867,1.78594 1.48309,-0.003 c 0.81571,-0.001 4.102476,-0.17817 7.303936,-0.39285 z m -34.840456,-1.36199 c 0.343931,-0.61457 0.06512,-1.45949 -0.449485,-1.36213 -0.582585,0.11022 -0.764814,1.79658 -0.194139,1.79658 0.22027,0 0.509901,-0.1955 0.643624,-0.43445 z m 3.64885,-2.54211 c 2.54889,-2.12562 6.58612,-5.68961 7.20741,-6.36257 l 0.62206,-0.67378 -0.75435,-0.38399 c -1.81319,-0.92295 -1.82865,-0.91785 -4.01306,1.32406 -1.11813,1.14756 -2.89616,2.89567 -3.95119,3.8847 -1.05502,0.98903 -1.91823,1.85078 -1.91823,1.915 0,0.32294 0.89391,1.42106 1.15679,1.42106 0.1662,0 0.90895,-0.50602 1.65057,-1.12448 z m 9.0881,-2.7435 c 1.12804,-0.94918 1.59829,-1.96239 1.59829,-3.44368 0,-2.55696 -1.7206,-4.62708 -4.16718,-5.0137 -1.00697,-0.15912 -1.12448,-0.12245 -1.12448,0.35088 0,0.4338 0.2238,0.5538 1.24819,0.66927 1.48787,0.1677 2.53315,1.15996 2.98341,2.8321 0.43799,1.62658 0.10715,2.78539 -1.08707,3.8076 -0.56533,0.4839 -1.02787,1.01722 -1.02787,1.18516 0,0.51544 0.71129,0.34058 1.57671,-0.38763 z m 44.063926,-8.398 c 2.47385,-1.89242 5.23057,-4.01552 6.12604,-4.71799 l 1.62812,-1.27722 -0.28867,-0.98972 c -0.15877,-0.54434 -0.31317,-1.02661 -0.3431,-1.0717 -0.0299,-0.0451 -2.0632,1.56225 -4.51838,3.57188 -2.45518,2.00962 -5.20633,4.23697 -6.11367,4.94966 -1.52121,1.19486 -1.64972,1.37642 -1.64972,2.33071 0,0.75549 0.0893,0.9823 0.33073,0.84004 0.1819,-0.10719 2.35479,-1.74324 4.82865,-3.63566 z m -27.43355,-6.79607 c 0.6967,-1.57734 0.76108,-1.88805 0.41848,-2.01951 -0.550687,-0.21132 -0.742387,0.0395 -1.536736,2.01103 -0.81558,2.0242 -0.79981,1.87261 -0.19489,1.87261 0.35239,0 0.720729,-0.5229 1.313146,-1.86413 z m 37.46433,-1.12321 c 0.35059,-0.5558 -0.38768,-1.39869 -1.01443,-1.15818 -0.49515,0.19 -0.54895,0.99772 -0.0966,1.45008 0.38923,0.38923 0.7394,0.29722 1.11102,-0.2919 z m 2.27129,-7.87552 0.13334,-5.79377 -0.74652,-0.16353 c -0.41059,-0.0899 -0.82731,-0.0828 -0.92604,0.0158 -0.0987,0.0987 -0.2881,2.35721 -0.42082,5.01901 l -0.24129,4.83964 0.90013,1.07216 c 0.49507,0.58969 0.96037,1.01192 1.034,0.93829 0.0736,-0.0736 0.19387,-2.74106 0.2672,-5.92764 z m -38.68103,4.98911 c 0.44182,-0.44182 0.39617,-1.13991 -0.10155,-1.55299 -0.82484,-0.68454 -1.858436,0.64224 -1.157907,1.48633 0.387717,0.46718 0.835257,0.49087 1.259457,0.0667 z m -4.476866,-5.92196 c 3.659576,-0.81321 5.057826,-1.54729 5.995786,-3.1478 1.21336,-2.07044 1.16048,-3.28842 -0.41811,-9.629545 -1.62007,-6.50774 -2.05204,-7.38038 -4.165616,-8.41529 -1.54618,-0.75709 -0.92491,-0.76922 -7.93748,0.15502 -2.99311,0.39448 -3.97075,0.62774 -4.70028,1.12144 -1.09203,0.73901 -1.97161,2.40048 -1.97161,3.72425 0,1.1948 2.71138,12.283195 3.26562,13.354955 0.53416,1.03296 2.10571,2.4031 3.46396,3.02001 1.4577,0.66209 2.84065,0.62295 6.46773,-0.18304 z m -3.74811,-1.54515 c -3.5372,-0.95123 -6.37339,-5.66158 -6.37841,-10.593275 -0.003,-2.57311 0.70956,-4.43461 2.21793,-5.79734 1.34448,-1.21465 2.58858,-1.58034 4.86781,-1.43084 2.1696,0.14231 4.19038,1.02661 5.26534,2.30414 1.523926,1.81108 3.098976,6.171675 3.098976,8.579675 0,3.13842 -2.105107,6.076 -4.920166,6.86587 -1.86341,0.52284 -2.43723,0.53276 -4.15148,0.0718 z m 3.92321,-2.23771 c 2.19784,-0.99834 3.194156,-2.97898 2.951929,-5.8683 -0.345349,-4.119255 -3.486959,-7.657285 -6.799339,-7.657285 -3.46055,0 -5.28283,2.98388 -4.41655,7.231845 0.21429,1.0508 0.64476,2.45333 0.95659,3.11672 1.42442,3.03032 4.59532,4.40893 7.30737,3.17702 z m -2.92136,-2.19269 c -2.3606,-1.3056 -3.5891,-4.5342 -2.65549,-6.978815 0.85648,-2.24268 2.80169,-2.67599 4.62364,-1.02997 1.39325,1.25872 1.96671,2.809215 1.81496,4.907185 -0.10676,1.476 -0.21245,1.72128 -1.08691,2.52267 -1.00084,0.9172 -1.78152,1.08483 -2.6962,0.57893 z m 19.076666,2.71017 c 0.4219,-0.13443 2.1363,-0.62248 3.80979,-1.08455 3.177,-0.8772 3.76066,-1.20532 4.42324,-2.48661 0.64602,-1.24925 0.47156,-2.9796 -0.72407,-7.181665 -0.61842,-2.17343 -1.35012,-4.75051 -1.62601,-5.72683 -0.5933,-2.09952 -1.4127,-3.16839 -2.87854,-3.7549 -1.49439,-0.59794 -8.82475,-0.33397 -10.48324,0.37751 -2.19096,0.9399 -2.52564,2.34922 -1.56919,6.60773 1.3799,6.143825 2.83916,10.869935 3.63675,11.778345 1.35735,1.54594 3.41802,2.1061 5.41127,1.47097 z m -0.82042,-1.68029 c -2.32644,-0.95393 -3.60685,-2.14473 -4.76625,-4.43269 -2.56892,-5.069515 -1.48236,-10.961455 2.31397,-12.547665 2.83837,-1.18595 6.71625,0.52415 8.46199,3.73163 1.081,1.98617 1.88486,5.43783 1.72633,7.412685 -0.27099,3.37597 -2.58572,5.9051 -5.56499,6.08044 -0.75751,0.0446 -1.73448,-0.0654 -2.17105,-0.2444 z m 3.78813,-2.31655 c 0.58052,-0.35393 1.10766,-1.03738 1.5568,-2.01843 0.58475,-1.27727 0.65868,-1.72653 0.53226,-3.234515 -0.19061,-2.27349 -1.00786,-4.41868 -2.22522,-5.84089 -1.15491,-1.34925 -2.25191,-1.86317 -3.9742,-1.86182 -2.78583,0.002 -4.21904,2.00018 -3.97317,5.53888 0.24784,3.567045 1.60097,6.367725 3.582,7.413985 1.32143,0.69789 3.35936,0.69915 4.50153,0.003 z m -3.28641,-1.95175 c -2.21905,-0.9822 -3.5193,-5.375365 -2.22113,-7.504555 0.97358,-1.59681 2.37686,-1.7562 3.93308,-0.44673 0.94252,0.79309 1.88738,3.12365 1.88738,4.65539 0,1.077475 -0.57405,2.627195 -1.15034,3.105475 -0.57142,0.47424 -1.62303,0.55601 -2.44899,0.19042 z m 26.6252,-1.28146 c 0.44015,-0.96968 0.7085,-2.579685 0.42996,-2.579685 -0.4036,0 -3.73006,1.544555 -3.80397,1.766275 -0.052,0.15607 0.21858,0.65595 0.60133,1.11083 0.49085,0.58334 0.92671,0.82706 1.47909,0.82706 0.66492,0 0.86024,-0.16979 1.29359,-1.12448 z m -10.06129,-1.885915 c 0,-0.055 -0.16313,-0.50147 -0.36251,-0.99219 -0.19937,-0.49071 -0.30355,-1.05591 -0.23151,-1.25601 0.17407,-0.48341 -0.48007,-0.25869 -0.8212,0.28212 -0.37662,0.59707 0.2762,2.06606 0.91815,2.06606 0.27339,0 0.49707,-0.045 0.49707,-0.1 z m 3.25648,-2.99222 c 0.88325,-0.53655 1.4731,-1.01981 1.31078,-1.07392 -0.26007,-0.0867 -3.24435,1.71125 -3.24435,1.95462 0,0.22875 0.42852,0.0336 1.93357,-0.8807 z m -0.56767,-1.4333 c 1.36638,-0.8768 1.41237,-0.94761 1.01294,-1.55992 -0.21254,-0.32581 -0.50066,-0.14815 -1.60911,0.99219 -1.52407,1.56792 -1.29798,1.78321 0.59617,0.56773 z m 15.01622,-8.10158 c 0.0606,-0.0401 0.0369,-0.14624 -0.0527,-0.23585 -0.19784,-0.19784 -1.3212,0.5007 -6.80628,4.23233 -2.32731,1.58333 -4.23148,2.98263 -4.23148,3.10956 0,0.12693 2.47055,-1.40359 5.49011,-3.40117 3.01955,-1.99757 5.53971,-3.66476 5.60034,-3.70487 z m -0.81909,-1.28258 c 0.0467,-0.0344 -0.16723,-0.90916 -0.47539,-1.94389 l -0.56028,-1.88133 -1.93627,1.52525 c -8.10748,6.38652 -8.50615,6.83781 -7.93187,8.97883 0.1415,0.52756 0.58896,0.28118 5.48649,-3.02094 2.93283,-1.97745 5.37062,-3.62351 5.41732,-3.65792 z m -7.59178,5.77372 c 0.32911,-0.41964 0.31975,-0.429 -0.0999,-0.0999 -0.25466,0.19972 -0.46302,0.40808 -0.46302,0.46302 0,0.21776 0.21727,0.0776 0.56291,-0.36313 z m 16.31201,-10.45104 c 6.9135,-4.978779 6.82959,-4.910171 6.45877,-5.28099 -0.31862,-0.318624 -2.56966,1.11894 -7.45869,4.76329 -1.23693,0.92202 -2.75476,1.99612 -3.37297,2.38689 -0.77822,0.49193 -1.12415,0.89364 -1.12448,1.30581 -2.6e-4,0.32742 0.0586,0.59532 0.13074,0.59532 0.0722,0 2.48715,-1.69665 5.36663,-3.77032 z m 0.0778,-2.34724 c 3.1908,-2.346003 5.79935,-4.280768 5.79678,-4.299475 -0.003,-0.01871 -0.35976,-1.159228 -0.79375,-2.534493 -0.43399,-1.375265 -0.78908,-2.707692 -0.78908,-2.960947 0,-0.253256 -0.11345,-0.530583 -0.25211,-0.616282 -0.13867,-0.0857 -2.69851,1.890812 -5.68854,4.392247 l -5.43643,4.548063 v 1.497237 c 0,1.66016 0.66189,4.23912 1.08796,4.23912 0.15054,0 2.88437,-1.91946 6.07517,-4.26547 z m 17.76351,1.86912 c 0.75515,-0.75515 0.79901,-0.9043 0.6605,-2.24626 -0.16018,-1.552014 -1.46366,-4.812986 -2.87782,-7.199538 -1.13325,-1.9125 -4.27702,-5.255198 -5.55622,-5.907794 -3.8017,-1.939486 -4.40104,1.80692 -1.29463,8.092653 1.90562,3.855981 4.01148,6.263999 6.63111,7.582589 1.26932,0.63891 1.50801,0.6074 2.43706,-0.32165 z m -4.16814,-2.669387 c -3.02651,-2.789739 -5.82412,-8.787105 -4.90237,-10.50942 0.40575,-0.758144 1.0073,-0.710847 2.42938,0.19101 2.15673,1.367755 4.78067,5.504537 5.52341,8.707934 0.27938,1.20497 0.26485,1.482485 -0.10734,2.050523 -0.64185,0.97959 -1.55032,0.84375 -2.94308,-0.440047 z M 52.230436,63.954987 c -2.111379,-0.584826 -4.185861,-1.956634 -5.623941,-3.718983 -1.796854,-2.202024 -2.405946,-3.921981 -2.427973,-6.85613 -0.01658,-2.208228 0.0513,-2.525435 0.934183,-4.365625 1.178648,-2.456651 2.711732,-4.178184 5.543025,-6.224384 1.203048,-0.869453 2.729068,-1.985854 3.391156,-2.48089 l 1.203797,-0.900066 2.082733,2.194651 c 2.078212,2.189887 2.081592,2.195793 1.556991,2.720394 -0.455435,0.455435 -0.640436,0.485761 -1.383381,0.226769 -3.071391,-1.070693 -6.956912,0.516016 -8.474775,3.460798 -0.789264,1.53124 -0.702622,4.472972 0.184154,6.2525 0.932535,1.871353 2.928343,3.997626 4.644034,4.947613 1.202001,0.665554 1.688943,0.77964 3.264789,0.764909 2.198193,-0.02055 3.528163,-0.606759 4.951873,-2.182636 1.564132,-1.731307 1.555673,-2.068326 -0.08909,-3.54956 -2.425894,-2.184706 -2.460903,-2.200023 -3.438046,-1.504236 l -0.842376,0.599824 -0.497217,-0.614037 -0.497217,-0.614037 2.056236,-1.879535 c 1.13093,-1.033745 2.57641,-2.385551 3.212178,-3.004015 0.635768,-0.618463 1.24324,-1.124479 1.349937,-1.124479 0.467476,0 1.035943,0.949271 0.795843,1.32896 -0.665549,1.052484 -0.293863,1.900658 1.755965,4.007051 l 2.011214,2.066714 -0.859634,1.524158 c -3.87855,6.876795 -9.645583,10.353218 -14.804461,8.924272 z M 183.92265,60.98267 c -1.70759,-1.712055 -3.10471,-3.245289 -3.10471,-3.407186 0,-0.161897 0.17439,-0.439095 0.38754,-0.615996 0.31051,-0.2577 0.53405,-0.218445 1.12448,0.197474 1.61507,1.137694 1.74935,1.093244 4.35092,-1.440356 1.31968,-1.285203 3.81461,-3.849463 5.54428,-5.698355 3.33647,-3.566439 3.58365,-4.057109 2.71311,-5.385715 -0.40258,-0.614422 -0.39956,-0.694491 0.0447,-1.185422 0.47473,-0.524571 0.47882,-0.524305 1.12025,0.07292 0.35408,0.32968 1.92958,1.971539 3.50111,3.648575 2.58193,2.755267 2.823,3.096113 2.5011,3.536332 -0.34408,0.47056 -0.38712,0.468085 -1.26196,-0.0726 -0.49815,-0.307873 -1.12347,-0.559769 -1.3896,-0.559769 -0.59223,0 -11.76031,11.058918 -11.74837,11.633537 0.005,0.222752 0.18226,0.634811 0.39475,0.915687 0.34137,0.451254 0.33562,0.566715 -0.0494,0.992187 -0.23966,0.264828 -0.56799,0.481505 -0.72961,0.481505 -0.16162,0 -1.69098,-1.400773 -3.39858,-3.112828 z m -8.03232,-7.162788 c -1.32774,-0.969609 -3.14344,-2.209814 -4.0349,-2.756011 -1.60351,-0.982472 -1.8292,-1.311047 -1.38363,-2.014371 0.1881,-0.296905 0.40532,-0.303464 1.21377,-0.03665 1.35272,0.446435 1.64083,0.09258 2.27042,-2.788472 0.40238,-1.841301 0.44083,-2.385609 0.18079,-2.558848 -0.18167,-0.121025 -1.56063,-0.886657 -3.06437,-1.701404 -2.29407,-1.242965 -2.82965,-1.437807 -3.32802,-1.210734 -0.9789,0.446019 -3.85979,2.959683 -3.85979,3.367789 0,0.20862 0.35719,0.643389 0.79375,0.966153 0.90022,0.665557 0.9123,0.70562 0.41184,1.36583 -0.34394,0.453719 -0.54567,0.381202 -3.48187,-1.251621 -1.71422,-0.953284 -3.22258,-1.768513 -3.3519,-1.81162 -0.12932,-0.04311 -0.0958,-0.384109 0.0744,-0.757781 0.28292,-0.620952 0.41835,-0.668951 1.57404,-0.557904 1.62407,0.156053 2.115,-0.157501 10.5943,-6.766537 3.56526,-2.778879 6.74012,-5.192234 7.05524,-5.363012 0.49249,-0.266904 0.8014,-0.171731 2.1998,0.677757 1.05553,0.641198 1.5777,1.116373 1.48688,1.353053 -0.077,0.200633 -0.61163,2.95557 -1.1881,6.122081 -2.46539,13.542418 -2.50883,14.098578 -1.22074,15.629382 0.58759,0.698312 0.60686,0.805583 0.23905,1.330705 -0.22003,0.31414 -0.4826,0.560808 -0.58349,0.548151 -0.10089,-0.01266 -1.26977,-0.816328 -2.5975,-1.785937 z m -0.50014,-16.024299 c 0.37037,-1.731882 0.61992,-3.202349 0.55457,-3.267707 -0.0654,-0.06536 -0.57321,0.230783 -1.12856,0.658089 -0.55535,0.427306 -1.87027,1.418276 -2.92206,2.202155 -1.2162,0.906419 -1.79408,1.490844 -1.5875,1.605468 2.8503,1.581486 4.30443,2.297125 4.35187,2.141747 0.032,-0.104983 0.36131,-1.607871 0.73168,-3.339752 z M 71.862514,51.342582 c -0.49953,-0.499536 -0.37926,-0.9975 0.47625,-1.971882 0.94908,-1.080942 0.93594,-0.61354 0.26663,-9.484576 -0.28546,-3.783541 -0.59601,-8.069791 -0.69011,-9.524999 l -0.17109,-2.645833 1.50317,-0.732213 c 0.89009,-0.433573 1.65043,-0.649398 1.86422,-0.529167 0.39878,0.224263 6.04234,4.96607 11.2208,9.427885 3.65693,3.150844 4.62427,3.712495 5.96191,3.461552 0.79801,-0.149708 0.8946,-0.09714 1.06437,0.579281 0.12963,0.516488 0.0795,0.779199 -0.16399,0.859289 -0.19288,0.06345 -2.13664,1.018943 -4.31945,2.123324 -2.18281,1.10438 -4.04998,2.044965 -4.14927,2.090188 -0.0993,0.04522 -0.31832,-0.175249 -0.48674,-0.489937 -0.26183,-0.489247 -0.20319,-0.679686 0.40468,-1.314162 0.94012,-0.981283 0.7764,-1.380456 -1.34246,-3.272959 l -1.74126,-1.555252 -3.0232,1.481873 -3.02321,1.481872 0.0286,1.131712 c 0.0157,0.622442 0.16454,1.905619 0.33073,2.851504 l 0.30217,1.719792 h 1.32292 c 2.22692,0 1.77831,0.643771 -1.92848,2.767441 -1.78826,1.024522 -3.2825,1.862767 -3.32052,1.862767 -0.038,0 -0.212,-0.142875 -0.38663,-0.3175 z m 5.75059,-13.416748 2.13869,-1.034249 -2.31745,-2.136324 -2.31745,-2.136324 -0.0872,1.252344 c -0.0864,1.241757 0.18168,5.088802 0.35466,5.088802 0.0495,0 1.05244,-0.465412 2.22873,-1.034249 z m 73.703796,2.879821 c -4.16209,-1.302028 -9.98833,-2.842583 -11.98719,-3.169614 l -1.93303,-0.31626 0.0809,-0.833495 c 0.073,-0.751517 0.18243,-0.846506 1.11274,-0.965786 0.70082,-0.08986 1.18361,-0.344478 1.50503,-0.79375 0.55977,-0.782416 4.57983,-15.483801 4.37791,-16.010013 -0.0763,-0.198884 -0.62065,-0.63682 -1.20961,-0.973192 -1.07678,-0.614976 -1.32931,-1.177408 -0.77674,-1.729973 0.20948,-0.209483 0.50462,-0.218956 0.99219,-0.03185 0.3817,0.146482 2.65751,0.743833 5.05734,1.327446 2.39984,0.583613 4.44843,1.113703 4.55242,1.177977 0.104,0.06427 0.0926,0.377729 -0.0254,0.696568 -0.17876,0.483233 -0.38868,0.567127 -1.26142,0.504114 -1.61098,-0.116317 -2.10144,0.463418 -2.98598,3.529546 -1.49005,5.16504 -3.45237,12.484668 -3.45237,12.877664 0,0.521722 0.76897,0.853624 3.26357,1.408619 2.8126,0.625745 4.21897,0.397255 5.45723,-0.886624 0.51507,-0.534053 1.05555,-1.167907 1.20108,-1.408564 0.19812,-0.327648 0.41305,-0.379182 0.85563,-0.205158 l 0.59106,0.232401 -1.05687,2.9503 c -0.58128,1.622664 -1.12217,3.05596 -1.20198,3.185101 -0.20124,0.325613 -0.45145,0.280791 -3.15659,-0.565459 z M 97.380144,38.91853 c -0.11462,-0.421413 -0.0327,-0.704625 0.25596,-0.884489 1.21813,-0.759109 1.69016,-1.284017 1.69016,-1.879483 0,-1.193405 -2.8877,-15.766008 -3.19836,-16.14033 -0.18509,-0.223024 -0.81597,-0.368728 -1.59653,-0.368728 -1.25569,0 -1.29052,-0.02129 -1.29052,-0.788709 0,-0.604927 0.13871,-0.817496 0.59531,-0.91225 0.32742,-0.06795 1.84547,-0.374272 3.37344,-0.680721 1.52797,-0.306448 3.135306,-0.66152 3.571876,-0.789047 0.43656,-0.127527 1.29977,-0.310187 1.91823,-0.40591 1.05202,-0.162826 1.12443,-0.134181 1.12376,0.444527 -5.1e-4,0.443818 -0.28081,0.768062 -0.99218,1.147735 -0.81876,0.436988 -1.00511,0.690692 -1.06972,1.456427 -0.0741,0.878553 2.4272,15.393426 2.73994,15.89945 0.22094,0.357489 1.77615,0.288996 3.7784,-0.166405 2.97386,-0.67639 4.06574,-1.62126 4.68306,-4.052545 0.26253,-1.033946 0.41354,-1.230677 0.94467,-1.230677 0.55885,0 0.6525,0.153433 0.80743,1.322916 0.0964,0.727605 0.18569,2.22177 0.19844,3.320368 l 0.0232,1.997451 -4.80895,0.731116 c -2.64493,0.402114 -6.18704,1.097607 -7.87136,1.545541 -4.368576,1.16179 -4.670896,1.188683 -4.876236,0.433763 z m 26.155506,-2.877892 c -2.03729,-0.09713 -3.74184,-0.194362 -3.78789,-0.216076 -0.046,-0.02171 -0.046,-0.362666 0,-0.757673 0.0679,-0.58273 0.25719,-0.7534 1.0034,-0.904851 1.40913,-0.285999 1.85902,-1.038392 1.85518,-3.102621 -0.002,-0.966144 0.13908,-4.588054 0.31306,-8.04869 0.35297,-7.020549 0.36778,-6.943535 -1.40501,-7.306109 -0.76786,-0.157043 -0.88916,-0.288659 -0.88916,-0.964756 0,-0.668701 0.0965,-0.777436 0.66146,-0.745427 0.3638,0.02061 2.78111,0.126602 5.37181,0.235533 l 4.71034,0.198057 -0.0801,0.690509 c -0.0648,0.55872 -0.23802,0.705867 -0.90737,0.770982 -0.45498,0.04426 -1.09927,0.370037 -1.43175,0.723949 -0.58379,0.621415 -0.6175,0.92511 -0.98338,8.85852 -0.41624,9.025514 -0.43886,8.846417 1.15521,9.145465 1.04584,0.196202 1.25984,0.439746 1.02807,1.170001 -0.18614,0.586486 0.1263,0.574525 -6.61383,0.253187 z"
       id="path1" /></g></svg>
