<?xml version="1.0" encoding="UTF-8" standalone="no"?>
<!-- Created with Inkscape (http://www.inkscape.org/) -->

<svg
   version="1.1"
   id="svg1"
   width="65"
   height="65"
   viewBox="0 0 65 65"
   sodipodi:docname="NeurIPS-logo.pdf"
   inkscape:export-filename="NeurIPS-logo.png"
   inkscape:export-xdpi="300"
   inkscape:export-ydpi="300"
   xmlns:inkscape="http://www.inkscape.org/namespaces/inkscape"
   xmlns:sodipodi="http://sodipodi.sourceforge.net/DTD/sodipodi-0.dtd"
   xmlns="http://www.w3.org/2000/svg"
   xmlns:svg="http://www.w3.org/2000/svg">
  <defs
     id="defs1" />
  <sodipodi:namedview
     id="namedview1"
     pagecolor="#ffffff"
     bordercolor="#000000"
     borderopacity="0.25"
     inkscape:showpageshadow="2"
     inkscape:pageopacity="0.0"
     inkscape:pagecheckerboard="0"
     inkscape:deskcolor="#d1d1d1">
    <inkscape:page
       x="0"
       y="0"
       inkscape:label="1"
       id="page1"
       width="65"
       height="65"
       margin="0"
       bleed="0" />
  </sodipodi:namedview>
  <g
     id="g1"
     inkscape:groupmode="layer"
     inkscape:label="1">
    <path
       id="path1"
       d="m 7.324199,12.937333 c 0.516,0.313333 1.098666,0.24 1.317333,-0.161333 0.224,-0.401333 0,-0.994667 -0.504,-1.333333 -0.526667,-0.349334 -1.146667,-0.297334 -1.376,0.136 -0.229333,0.421333 0.032,1.036 0.562667,1.358666 m 6.073333,-1.02 c 0,0 -0.016,-0.0053 -0.016,-0.0053 0.437333,-0.188 1.333333,-0.125333 2.068,0.76 0.161333,0.218666 0.421333,0.312 0.636,0.213333 0.254666,-0.12 0.353333,-0.464 0.228,-0.770666 -0.129334,-0.322667 -0.452,-0.489334 -0.718667,-0.369334 -0.0053,0 -0.01467,0.004 -0.02533,0.0093 -0.661334,0.229333 -1.521334,-0.192 -2.12,-1 -0.01067,-0.02 -0.02667,-0.036 -0.04133,-0.05733 -0.224,-0.290666 -0.568,-0.426666 -0.854667,-0.328 -0.02533,0.01067 -0.052,0.02133 -0.07867,0.03733 -1.238666,0.530666 -1.885333,0.328 -2.530666,-0.552 -0.07867,-0.130667 -0.188,-0.261334 -0.317334,-0.370667 -0.494666,-0.405333 -1.141333,-0.432 -1.428,-0.03067 -0.285333,0.396 -0.09333,1.036 0.417334,1.426667 0.297333,0.224 0.634666,0.313333 0.916,0.26 0,0 0.0053,0 0.0053,0 0.032,-0.004 0.068,-0.01467 0.104,-0.02533 0.636,-0.150667 2.037333,-0.432 2.662666,0.421333 0.004,0.01067 0.01467,0.02133 0.02,0.032 0.02133,0.03067 0.04133,0.06267 0.06267,0.088 0.557334,1.104 0.354667,1.781333 -0.09867,2.609333 -0.016,0.02133 -0.02667,0.04133 -0.04133,0.068 -0.12,0.276 0.036,0.625333 0.348,0.770667 0.308,0.146666 0.646667,0.04133 0.770667,-0.224 0.07867,-0.172 0.04267,-0.38 -0.072,-0.541334 -0.625333,-0.948 -0.417333,-2.213333 0.104,-2.421333 m -0.02664,-0.0053 c 0,0 -0.02,-0.0053 -0.02,-0.0053 0,0 0.0053,-0.0053 0.0053,-0.0053 0,0 0.01467,-0.01067 0.01467,-0.01067 0,0 0,0.02133 0,0.02133 m 3.302697,-3.005393 c -0.776,0.150666 -1.750667,-0.313334 -2.021334,-1.234667 -0.01067,-0.041333 -0.02,-0.078667 -0.03067,-0.12 -0.016,-0.041333 -0.032,-0.082667 -0.04667,-0.125333 C 14.345532,6.849333 13.804198,6.5 13.370865,6.661333 c -0.432,0.161334 -0.566667,0.776 -0.306667,1.354667 0.192,0.432 0.552,0.713333 0.896,0.744 0.01467,0 0.03067,0 0.04667,0 1.134667,0.06267 1.817333,0.328 2.297333,1.130667 0.104,0.317333 0.348,0.541333 0.604,0.568 0.812,0.145333 1.462667,0.505333 1.645334,1.077333 0.06267,0.218667 0.229333,0.370667 0.412,0.370667 0.229333,0 0.4,-0.229334 0.390666,-0.516 -0.0053,-0.292 -0.198666,-0.530667 -0.428,-0.536 -0.02,0 -0.036,0 -0.052,0.0053 -0.02,0 -0.04133,0.004 -0.06267,0.01467 C 18.189532,11 17.496198,10.453333 17.474865,9.989333 c 0.01067,-0.04133 0.016,-0.088 0.02133,-0.134666 0.245334,-0.985334 0.568,-1.548 1.464,-1.844 0.036,-0.01067 0.068,-0.02133 0.09867,-0.032 0.254667,-0.114667 0.432,-0.448 0.421333,-0.858667 -0.0093,-0.546667 -0.342666,-1.041333 -0.738666,-1.093333 -0.354667,-0.048 -0.636,0.265333 -0.682667,0.718666 -0.0053,0.06133 -0.0053,0.124 -0.0053,0.186667 -0.04667,1.213333 -0.202667,1.828 -1.306667,1.964 -0.01067,0 -0.02133,0.0053 -0.03733,0.0053 -0.01067,0 -0.02,0.0053 -0.036,0.0053 m 6.688,-0.152 c -0.188,1 0.03067,1.469333 0.347999,1.896 0.032,0.01067 0.06267,0.032 0.09467,0.05733 0.004,0.0053 0.0093,0.01067 0.01467,0.016 0.521333,0.505333 0.989333,0.464 1.568,-0.104 0.177333,-0.193333 0.406666,-0.188 0.541333,0.02 0.146667,0.229333 0.12,0.62 -0.052,0.881333 C 25.709531,11.76 25.470865,11.802667 25.318865,11.630667 24.752198,11.197333 24.465531,11.156 23.736198,11.604 c -0.114667,0.084 -0.250666,0.08933 -0.354666,-0.0053 -0.125334,-0.104 -0.182667,-0.306667 -0.156,-0.510667 0.0053,-0.01467 0.0053,-0.03067 0.01067,-0.04133 0.09867,-0.598667 -0.0053,-1.276 -0.636,-1.910667 -0.23467,-0.19867 -0.33867,-0.63067 -0.229337,-1.021336 0.12,-0.421334 0.453333,-0.614667 0.729333,-0.421334 0.229334,0.150667 0.344,0.514667 0.302667,0.858667 0,0 0,0.0053 0,0.0053 -0.0053,0.068033 -0.02133,0.1307 -0.04133,0.197367 M 7.408199,15.650666 c 0.541333,0.198667 1.066666,0.016 1.186666,-0.405333 0.125333,-0.428 -0.202666,-0.953333 -0.749333,-1.172 -0.557333,-0.229333 -1.125333,-0.04667 -1.245333,0.405333 -0.114667,0.448 0.250666,0.974667 0.808,1.172 m 19.801332,-2.885333 c -0.114666,0.125333 -0.156,0.344 -0.088,0.48 0.06267,0.14 0.197334,0.150667 0.306667,0.03067 0.114667,-0.12 0.156,-0.328 0.1,-0.469334 -0.06267,-0.145333 -0.204,-0.166666 -0.318667,-0.04133 m -7.161333,-1.484 c -0.036,0.276 0.109334,0.530667 0.322667,0.578667 0.204,0.04667 0.401333,-0.136 0.437333,-0.401333 0.03733,-0.270667 -0.09867,-0.537334 -0.312,-0.589334 -0.213333,-0.05733 -0.416,0.130667 -0.448,0.412 M 16.933532,11.844 c 0.07867,0.328 0.354666,0.536 0.614666,0.478667 0.26,-0.05733 0.417334,-0.364 0.349334,-0.686667 -0.068,-0.329333 -0.344,-0.557333 -0.609334,-0.5 -0.270666,0.05733 -0.426666,0.374667 -0.354666,0.708 m -2.786667,1.806666 C 14.340198,13.932 14.689532,14.016 14.917532,13.844 c 0.234666,-0.172 0.272,-0.537334 0.084,-0.822667 -0.193334,-0.292 -0.546667,-0.385333 -0.786667,-0.209333 -0.24,0.177333 -0.270667,0.552 -0.068,0.838666 m 7.709333,-3.483999 c -0.09467,0.312 0.01467,0.656 0.233334,0.765333 0.214666,0.114667 0.458666,-0.036 0.548,-0.333333 0.09333,-0.301334 -0.0053,-0.645334 -0.218667,-0.770667 -0.22,-0.125333 -0.474667,0.02667 -0.562667,0.338667 M 20.184198,9.588 c -0.04667,0.370667 0.14,0.724 0.405334,0.797333 0.266666,0.068 0.516,-0.161333 0.562666,-0.516 0.052,-0.358666 -0.12,-0.724 -0.390666,-0.806666 -0.276,-0.084 -0.536,0.156 -0.577334,0.525333 M 18.250865,9.464 c 0.02133,0.416 0.297333,0.76 0.610667,0.770667 0.306666,0.01067 0.546666,-0.302667 0.530666,-0.713334 -0.01067,-0.417333 -0.276,-0.776 -0.593333,-0.797333 -0.324,-0.02133 -0.573333,0.312 -0.548,0.74 m -3.932,1.072 c 0.188,0.412 0.594667,0.625333 0.912,0.485333 0.317333,-0.136 0.437333,-0.578666 0.270667,-0.990666 -0.172,-0.416 -0.584,-0.656 -0.917334,-0.514667 -0.333333,0.134667 -0.452,0.598667 -0.265333,1.02 m -3.921333,3.625333 c 0.416,0.172 0.853333,0.036 0.989333,-0.306667 0.136,-0.338666 -0.08267,-0.766666 -0.494666,-0.953333 -0.421334,-0.193333 -0.885334,-0.06267 -1.026667,0.292 -0.134667,0.353333 0.105333,0.790667 0.532,0.968 M 26.428198,11.76 c -0.166667,0.188 -0.224,0.510667 -0.129333,0.718667 0.09333,0.203999 0.296,0.223999 0.462666,0.04267 0.166667,-0.177333 0.229334,-0.490666 0.141334,-0.698666 -0.08933,-0.218667 -0.302667,-0.244 -0.474667,-0.06267 m -2.396,-2.484 c -0.156,0.328 -0.109333,0.76 0.1,0.958667 0.202667,0.192 0.484,0.09333 0.634667,-0.224 0.150666,-0.313334 0.12,-0.74 -0.07733,-0.948 -0.209333,-0.213334 -0.5,-0.12 -0.657333,0.213333 m -3.676,-1.953333 c -0.05734,0.510665 0.18133,1.005332 0.52533,1.125332 0.338666,0.109333 0.666666,-0.188 0.734666,-0.672 0.07333,-0.489333 -0.150666,-1.005333 -0.5,-1.14 -0.354666,-0.141333 -0.697333,0.170667 -0.76,0.686667 M 15.569532,7.172 c 0.134666,0.573333 0.582666,0.973333 0.994666,0.910667 0.406667,-0.056 0.64,-0.552 0.525334,-1.113334 -0.114667,-0.573333 -0.557334,-1.016 -0.984,-0.964 C 15.668198,6.052 15.428198,6.584 15.569532,7.172 m -4.98,2.125333 c 0.36,0.505334 0.948,0.692 1.318667,0.432 0.369333,-0.26 0.405333,-0.88 0.06667,-1.401333 -0.348,-0.536 -0.957334,-0.76 -1.353334,-0.489333 -0.396,0.276 -0.406666,0.932 -0.032,1.458666"
       style="fill:#68448b;fill-opacity:1;fill-rule:evenodd;stroke:none;stroke-width:1.33333" />
    <path
       id="path2"
       d="m 15.741532,30.171999 c 0.02,-0.604 -0.328,-1.078666 -0.781334,-1.078666 -0.458666,0 -0.865333,0.485333 -0.912,1.094666 -0.052,0.629334 0.302667,1.150667 0.786667,1.145334 0.478667,-0.01067 0.885333,-0.536 0.906667,-1.161334 m -3.844,-4.838666 c 0,0 0,0.016 0,0.016 -0.374667,-0.297333 -0.756,-1.114667 -0.349333,-2.188 C 11.662865,22.912 11.616199,22.64 11.422865,22.5 c -0.224,-0.166667 -0.566666,-0.088 -0.776,0.177333 -0.213333,0.270667 -0.202666,0.629333 0.02667,0.806667 0.0053,0.0053 0.016,0.01067 0.02133,0.016 0.52,0.473333 0.577333,1.432 0.166666,2.354666 -0.01067,0.02 -0.02133,0.04133 -0.02667,0.06267 -0.145333,0.342666 -0.09333,0.708 0.130667,0.910666 0.02,0.016 0.04667,0.036 0.06667,0.052 1.062667,0.828 1.209333,1.5 0.756,2.489334 -0.07333,0.136 -0.130667,0.292 -0.161333,0.464 -0.114667,0.636 0.177333,1.208 0.661333,1.270666 0.484,0.05733 0.948,-0.421333 1.036,-1.062666 0.052,-0.369334 -0.036,-0.708 -0.218667,-0.932 0,0 0,-0.0053 0,-0.0053 -0.02,-0.02533 -0.04667,-0.052 -0.07333,-0.07733 -0.442666,-0.490667 -1.369333,-1.584 -0.932,-2.548 0.0053,-0.0093 0.01067,-0.02 0.016,-0.03067 0.02133,-0.036 0.036,-0.068 0.04667,-0.104 0.682667,-1.026703 1.374667,-1.172036 2.312,-1.17737 0.02133,0 0.05333,0 0.07333,0 0.30267,-0.02667 0.52667,-0.333333 0.505337,-0.682666 -0.02533,-0.338667 -0.281334,-0.588 -0.568,-0.566667 -0.192,0.01467 -0.353334,0.145333 -0.437334,0.328 -0.52,1.009333 -1.718666,1.442667 -2.150666,1.088 m 0.0053,0.02667 c 0,0 0.0053,0.02 0.0053,0.02 0,0 -0.0053,-0.0053 -0.0053,-0.0053 0,0 -0.016,-0.0053 -0.016,-0.0053 0,0 0.016,-0.0093 0.016,-0.0093 m -4.2133301,-1.44277 c 0.509333,0.609333 0.577333,1.697333 -0.08933,2.385333 -0.02533,0.02533 -0.05733,0.052 -0.08267,0.08267 -0.032,0.03067 -0.06267,0.06267 -0.09467,0.09867 -0.385333,0.485334 -0.421333,1.130667 -0.072,1.428 0.353333,0.301334 0.953333,0.124 1.328,-0.381333 0.276,-0.385333 0.349333,-0.837333 0.208,-1.150667 0,0 -0.0053,-0.0053 -0.0053,-0.0053 -0.0053,-0.01067 -0.01067,-0.02533 -0.02,-0.04133 -0.496,-1.026667 -0.605333,-1.754667 -0.141333,-2.568 0.224,-0.249333 0.302666,-0.572 0.197333,-0.812 -0.270667,-0.781333 -0.270667,-1.532 0.136,-1.969333 0.156,-0.161334 0.208,-0.38 0.12,-0.541334 -0.114667,-0.197333 -0.396,-0.24 -0.641333,-0.09333 -0.244,0.145333 -0.358667,0.432 -0.249334,0.64 0.0053,0.016 0.016,0.02667 0.02533,0.04133 0.016,0.02133 0.02667,0.03733 0.04267,0.048 0.416,0.489334 0.276,1.364 -0.109333,1.609334 -0.04667,0.0093 -0.08933,0.02533 -0.130667,0.04667 -0.973336,0.265287 -1.620003,0.25462 -2.317336,-0.38538 -0.02133,-0.02667 -0.04667,-0.052 -0.07333,-0.07333 -0.224,-0.172 -0.598667,-0.166667 -0.953333,0.04667 -0.462667,0.276 -0.734667,0.808 -0.582667,1.182667 0.129333,0.33866 0.536,0.42666 0.953333,0.249326 0.05733,-0.02533 0.113333,-0.052 0.166667,-0.088 1.07733,-0.552 1.68133,-0.713333 2.33733,0.193334 0.01067,0.0093 0.016,0.02 0.02133,0.03067 0.01067,0.01067 0.016,0.016 0.02667,0.02667 m -3.390667,-5.802674 c 0.957334,-0.317333 1.26,-0.74 1.473334,-1.229333 -0.0053,-0.036 -0.0053,-0.07333 0.0053,-0.109333 0,-0.01067 0.0053,-0.016 0.0053,-0.02667 0.182666,-0.702667 -0.084,-1.093333 -0.854667,-1.328 -0.254667,-0.05733 -0.364,-0.265333 -0.244,-0.484 0.124,-0.24 0.478667,-0.406667 0.786667,-0.38 0.285333,0.02667 0.442666,0.218667 0.369333,0.437333 -0.104,0.708 0.0053,0.978667 0.749333,1.406667 0.125334,0.05733 0.193334,0.172 0.166667,0.312 -0.03067,0.156 -0.176,0.308 -0.369333,0.38 -0.016,0.0053 -0.02533,0.01067 -0.04133,0.016 -0.568,0.202667 -1.104,0.625333 -1.349334,1.489333 -0.052,0.302667 -0.38,0.604 -0.770666,0.698667 -0.426604,0.09867 -0.750604,-0.1 -0.723937,-0.43733 0.02667,-0.272 0.281333,-0.553334 0.604,-0.682667 0.06267,-0.02667 0.125333,-0.04667 0.193333,-0.06267 M 18.053532,28.775999 c -0.088,-0.568 -0.505334,-0.942666 -0.932,-0.844 -0.432,0.09867 -0.724,0.646667 -0.650667,1.229334 0.072,0.604 0.504,1.010666 0.957333,0.896 0.448,-0.114667 0.724,-0.693334 0.625334,-1.281334 M 5.902865,12.776 c 0.166667,0.04133 0.369334,-0.03067 0.458667,-0.156 0.088,-0.12 0.030667,-0.250667 -0.125333,-0.286667 -0.156,-0.036 -0.36,0.02667 -0.453334,0.145334 -0.093333,0.125333 -0.041333,0.255999 0.12,0.297333 m 2.202667,7.021333 c 0.256,-0.104 0.406666,-0.36 0.344,-0.568 -0.06267,-0.202667 -0.312,-0.286667 -0.562667,-0.188 -0.254666,0.09867 -0.416,0.349333 -0.358666,0.562667 0.056,0.213333 0.317333,0.302666 0.577333,0.193333 m 2,2.462667 c 0.250667,-0.229334 0.297333,-0.572 0.12,-0.776 -0.177334,-0.197334 -0.516,-0.181334 -0.765334,0.032 -0.256,0.218666 -0.318666,0.566666 -0.136,0.776 0.177334,0.213333 0.532001,0.197333 0.781334,-0.032 m 2.932,1.568 c 0.146666,-0.306667 0.052,-0.650667 -0.213334,-0.770667 -0.26,-0.12 -0.593333,0.02133 -0.749333,0.328 -0.161333,0.308 -0.07333,0.666667 0.197333,0.792 0.270667,0.125333 0.614667,-0.032 0.765334,-0.349333 M 6.256199,18.749333 c 0.313333,-0.072 0.557333,-0.333333 0.552,-0.577333 -0.004,-0.245334 -0.254667,-0.385334 -0.557334,-0.317334 -0.306666,0.06267 -0.561333,0.317334 -0.561333,0.566667 -0.0053,0.256 0.254667,0.401333 0.566667,0.328 M 6.574865,20.5 c 0.338667,-0.14 0.557334,-0.473334 0.484,-0.745334 -0.06267,-0.265333 -0.385333,-0.374666 -0.718666,-0.244 -0.333334,0.134667 -0.568,0.462667 -0.510667,0.74 0.06267,0.28 0.396,0.394667 0.745333,0.249334 m 0.828,1.76 c 0.353334,-0.218667 0.514667,-0.629334 0.374667,-0.910667 -0.14,-0.276 -0.530667,-0.328 -0.88,-0.12 -0.354667,0.208 -0.541333,0.62 -0.401333,0.910667 0.136,0.297333 0.546666,0.349333 0.906666,0.12 m 2.844,2.933333 c 0.270667,-0.365333 0.254667,-0.824 -0.02133,-1.037333 -0.276,-0.208 -0.713334,-0.104 -0.989334,0.245333 -0.281333,0.353333 -0.286666,0.833333 -0.0053,1.057333 0.286667,0.229334 0.744001,0.104 1.016001,-0.265333 m 5.061332,1.681333 c -0.05733,-0.448 -0.390666,-0.765333 -0.749333,-0.718667 -0.36,0.04667 -0.625333,0.448 -0.588,0.901334 0.036,0.464 0.374667,0.806666 0.754667,0.754666 0.374666,-0.052 0.636,-0.473333 0.582666,-0.937333 M 5.413532,13.948 c 0.238667,0.06267 0.546667,-0.04133 0.681333,-0.229334 0.136,-0.182666 0.046667,-0.369333 -0.186666,-0.432 -0.234667,-0.05733 -0.537334,0.04133 -0.677334,0.218667 -0.141333,0.188 -0.062666,0.385333 0.182667,0.442667 m -0.990667,3.322666 c 0.36,-0.02533 0.709334,-0.276 0.781334,-0.552 0.068,-0.270666 -0.156,-0.473333 -0.5,-0.453333 -0.348,0.02133 -0.702667,0.256 -0.786667,0.532 -0.08267,0.285333 0.141333,0.5 0.505333,0.473333 m 0.09467,4.182667 C 4.990868,21.26 5.304202,20.806666 5.236202,20.442666 5.168202,20.088 4.752202,19.948 4.298868,20.125333 c -0.458666,0.177333 -0.802666,0.62 -0.745333,0.994667 0.052,0.38 0.489333,0.530666 0.964,0.333333 M 6.720199,25.74 c 0.432,-0.401334 0.562666,-0.990667 0.312,-1.324 -0.254667,-0.328 -0.796,-0.290667 -1.228,0.07867 C 5.361532,24.88 5.194865,25.484 5.449532,25.833333 c 0.249333,0.36 0.828,0.317333 1.270667,-0.09333 m 4.270666,3.338666 c 0.265333,-0.562667 0.141334,-1.172 -0.265333,-1.370667 -0.412,-0.197333 -0.964,0.07333 -1.250667,0.625334 -0.296,0.568 -0.192,1.213333 0.234667,1.426666 0.432,0.213334 1.010666,-0.09333 1.281333,-0.681333"
       style="fill:#916ba4;fill-opacity:1;fill-rule:evenodd;stroke:none;stroke-width:1.33333" />
    <path
       id="path3"
       d="m 16.069532,15.984 c 0,0 0,2.130666 0,2.130666 0,0 -0.474667,0 -0.474667,0 0,0 0,-3.026666 0,-3.026666 0,0 0.376,0 0.376,0 0,0 1.718667,2.182666 1.718667,2.182666 0,0 0,-2.182666 0,-2.182666 0,0 0.478666,0 0.478666,0 0,0 0,3.026666 0,3.026666 0,0 -0.396,0 -0.396,0 0,0 -1.702666,-2.130666 -1.702666,-2.130666 m 4.844,1.709333 c 0,0 0,0.421333 0,0.421333 0,0 -2.068,0 -2.068,0 0,0 0,-3.026666 0,-3.026666 0,0 2.025333,0 2.025333,0 0,0 0,0.422666 0,0.422666 0,0 -1.552,0 -1.552,0 0,0 0,0.858667 0,0.858667 0,0 1.344,0 1.344,0 0,0 0,0.396 0,0.396 0,0 -1.344,0 -1.344,0 0,0 0,0.928 0,0.928 0,0 1.594667,0 1.594667,0 m 1.744,0.01467 c 0.156,0 0.292,-0.03067 0.396,-0.09333 0.104,-0.06267 0.188,-0.145333 0.250666,-0.245333 0.06133,-0.104 0.109334,-0.218667 0.134667,-0.348 0.02667,-0.130667 0.04133,-0.261333 0.04133,-0.396 0,0 0,-1.537333 0,-1.537333 0,0 0.48,0 0.48,0 0,0 0,1.537333 0,1.537333 0,0.202667 -0.02667,0.401333 -0.07333,0.582667 -0.04667,0.182666 -0.125334,0.344 -0.229334,0.485333 -0.104,0.134667 -0.238666,0.244 -0.406666,0.322667 -0.161333,0.08267 -0.364,0.12 -0.593333,0.12 -0.238667,0 -0.442667,-0.04267 -0.609334,-0.125334 -0.166666,-0.084 -0.296,-0.198666 -0.401333,-0.338666 -0.09867,-0.141334 -0.172,-0.302667 -0.218667,-0.478667 -0.04667,-0.182667 -0.06667,-0.376 -0.06667,-0.568 0,0 0,-1.537333 0,-1.537333 0,0 0.473333,0 0.473333,0 0,0 0,1.537333 0,1.537333 0,0.134667 0.016,0.270667 0.04133,0.401333 0.02667,0.129334 0.07333,0.244 0.136,0.342667 0.06267,0.104 0.145334,0.182667 0.254667,0.245333 0.104007,0.06266 0.234674,0.09333 0.390674,0.09333 m 1.931999,0.406666 c 0,0 0,-3.026666 0,-3.026666 0,0 1.313334,0 1.313334,0 0.134666,0 0.26,0.02667 0.369333,0.084 0.114667,0.05733 0.213333,0.130666 0.297333,0.224 0.08267,0.09333 0.145334,0.197333 0.192,0.317333 0.04667,0.114667 0.068,0.234667 0.068,0.36 0,0.09867 -0.01067,0.197333 -0.04133,0.290667 -0.02667,0.09467 -0.068,0.182666 -0.114667,0.261333 -0.052,0.08267 -0.114666,0.150667 -0.188,0.208 -0.072,0.05733 -0.156,0.104 -0.244,0.130667 0,0 0.708,1.150666 0.708,1.150666 0,0 -0.536,0 -0.536,0 0,0 -0.652,-1.052 -0.652,-1.052 0,0 -0.697333,0 -0.697333,0 0,0 0,1.052 0,1.052 0,0 -0.474667,0 -0.474667,0 M 25.064198,16.64 c 0,0 0.833333,0 0.833333,0 0.068,0 0.125334,-0.01467 0.182667,-0.04667 0.052,-0.03067 0.104,-0.06667 0.14,-0.12 0.04133,-0.05733 0.07333,-0.113333 0.09333,-0.181333 0.02667,-0.068 0.03733,-0.141334 0.03733,-0.218667 0,-0.07867 -0.016,-0.152 -0.04267,-0.218667 -0.02533,-0.068 -0.06133,-0.125333 -0.104,-0.177333 -0.04667,-0.052 -0.09867,-0.09333 -0.156,-0.125333 -0.05733,-0.02533 -0.114667,-0.04133 -0.177333,-0.04133 0,0 -0.806667,0 -0.806667,0 0,0 0,1.129334 0,1.129334 m 3.166667,-1.552 c 0,0 0.416,0 0.416,0 0,0 1.188,3.026666 1.188,3.026666 0,0 -0.5,0 -0.5,0 0,0 -0.317334,-0.822666 -0.317334,-0.822666 0,0 -1.161333,0 -1.161333,0 0,0 -0.318667,0.822666 -0.318667,0.822666 0,0 -0.5,0 -0.5,0 0,0 1.193334,-3.026666 1.193334,-3.026666 m 0.692,1.849333 c 0,0 -0.484,-1.301333 -0.484,-1.301333 0,0 -0.5,1.301333 -0.5,1.301333 0,0 0.984,0 0.984,0 m 1.281333,1.177333 c 0,0 0,-3.026666 0,-3.026666 0,0 0.474667,0 0.474667,0 0,0 0,2.605333 0,2.605333 0,0 1.614666,0 1.614666,0 0,0 0,0.421333 0,0.421333 0,0 -2.089333,0 -2.089333,0 m 3.412,0 c 0,0 0,-3.026666 0,-3.026666 0,0 0.473333,0 0.473333,0 0,0 0,3.026666 0,3.026666 0,0 -0.473333,0 -0.473333,0 M 35.241531,15.984 c 0,0 0,2.130666 0,2.130666 0,0 -0.474666,0 -0.474666,0 0,0 0,-3.026666 0,-3.026666 0,0 0.370666,0 0.370666,0 0,0 1.724,2.182666 1.724,2.182666 0,0 0,-2.182666 0,-2.182666 0,0 0.478667,0 0.478667,0 0,0 0,3.026666 0,3.026666 0,0 -0.396,0 -0.396,0 0,0 -1.702667,-2.130666 -1.702667,-2.130666 m 2.776,2.130666 c 0,0 0,-3.026666 0,-3.026666 0,0 2.005333,0 2.005333,0 0,0 0,0.422666 0,0.422666 0,0 -1.532,0 -1.532,0 0,0 0,0.905334 0,0.905334 0,0 1.281334,0 1.281334,0 0,0 0,0.396 0,0.396 0,0 -1.281334,0 -1.281334,0 0,0 0,1.302666 0,1.302666 0,0 -0.473333,0 -0.473333,0 m 3.634667,0.02133 c -0.213334,0 -0.410667,-0.04267 -0.588,-0.130667 -0.172,-0.084 -0.322667,-0.198667 -0.453334,-0.344 -0.125333,-0.145333 -0.224,-0.306667 -0.292,-0.494667 -0.072,-0.182666 -0.104,-0.369333 -0.104,-0.568 0,-0.197333 0.036,-0.390666 0.109334,-0.577333 0.07333,-0.188 0.172,-0.349333 0.302666,-0.490667 0.129334,-0.145333 0.281334,-0.254666 0.458667,-0.337333 0.176,-0.084 0.369333,-0.125333 0.577333,-0.125333 0.213334,0 0.412,0.04133 0.588,0.129333 0.177334,0.08933 0.324,0.209333 0.453334,0.354667 0.125333,0.145333 0.218666,0.308 0.292,0.494666 0.068,0.182667 0.104,0.369334 0.104,0.557334 0,0.202666 -0.036,0.396 -0.109334,0.584 -0.07333,0.181333 -0.172,0.342666 -0.301333,0.484 -0.130667,0.14 -0.286667,0.254666 -0.464,0.338666 -0.172,0.08267 -0.364,0.125334 -0.573333,0.125334 m -0.957334,-1.537334 c 0,0.146667 0.02533,0.281334 0.06667,0.417334 0.04667,0.129333 0.109333,0.249333 0.193333,0.353333 0.08267,0.104 0.186667,0.182667 0.306667,0.245333 0.114667,0.06267 0.250667,0.09333 0.396,0.09333 0.150667,0 0.286667,-0.036 0.406667,-0.09867 0.114666,-0.06267 0.213333,-0.145333 0.297333,-0.254667 0.08267,-0.104 0.145333,-0.218666 0.186667,-0.349333 0.04133,-0.136 0.06267,-0.265333 0.06267,-0.406667 0,-0.14 -0.02133,-0.281333 -0.068,-0.416 -0.04667,-0.130666 -0.109333,-0.245333 -0.192,-0.349333 -0.084,-0.09867 -0.182666,-0.182667 -0.302666,-0.24 -0.114667,-0.06267 -0.244,-0.09333 -0.390667,-0.09333 -0.150667,0 -0.286667,0.03067 -0.406667,0.09333 -0.118666,0.068 -0.218666,0.152 -0.301333,0.250667 -0.084,0.104 -0.145333,0.224 -0.188,0.353333 -0.04133,0.130667 -0.06667,0.266667 -0.06667,0.401333 m 2.894667,1.516 c 0,0 0,-3.026666 0,-3.026666 0,0 1.313333,0 1.313333,0 0.134667,0 0.26,0.02667 0.374667,0.084 0.114667,0.05733 0.208,0.130666 0.292,0.224 0.08267,0.09333 0.145333,0.197333 0.192,0.317333 0.04667,0.114667 0.07333,0.234667 0.07333,0.36 0,0.09867 -0.016,0.197333 -0.04667,0.290667 -0.02667,0.09467 -0.068,0.182666 -0.114667,0.261333 -0.052,0.08267 -0.114667,0.150667 -0.188,0.208 -0.072,0.05733 -0.156,0.104 -0.244,0.130667 0,0 0.708,1.150666 0.708,1.150666 0,0 -0.536,0 -0.536,0 0,0 -0.652,-1.052 -0.652,-1.052 0,0 -0.697333,0 -0.697333,0 0,0 0,1.052 0,1.052 0,0 -0.474667,0 -0.474667,0 M 44.064198,16.64 c 0,0 0.833333,0 0.833333,0 0.068,0 0.130667,-0.01467 0.182667,-0.04667 0.05733,-0.03067 0.104,-0.06667 0.14,-0.12 0.04133,-0.05733 0.07333,-0.113333 0.09333,-0.181333 0.02667,-0.068 0.03733,-0.141334 0.03733,-0.218667 0,-0.07867 -0.016,-0.152 -0.04267,-0.218667 -0.02533,-0.068 -0.06133,-0.125333 -0.104,-0.177333 -0.04667,-0.052 -0.09333,-0.09333 -0.156,-0.125333 -0.05733,-0.02533 -0.114667,-0.04133 -0.177334,-0.04133 0,0 -0.806666,0 -0.806666,0 0,0 0,1.129334 0,1.129334 m 4.858666,1.474666 c 0,0 0,-2.177333 0,-2.177333 0,0 -0.894666,1.650667 -0.894666,1.650667 0,0 -0.261334,0 -0.261334,0 0,0 -0.901333,-1.650667 -0.901333,-1.650667 0,0 0,2.177333 0,2.177333 0,0 -0.473333,0 -0.473333,0 0,0 0,-3.026666 0,-3.026666 0,0 0.510666,0 0.510666,0 0,0 0.994667,1.849333 0.994667,1.849333 0,0 0.994667,-1.849333 0.994667,-1.849333 0,0 0.510666,0 0.510666,0 0,0 0,3.026666 0,3.026666 0,0 -0.48,0 -0.48,0 M 50.965531,15.088 c 0,0 0.416,0 0.416,0 0,0 1.188,3.026666 1.188,3.026666 0,0 -0.5,0 -0.5,0 0,0 -0.317334,-0.822666 -0.317334,-0.822666 0,0 -1.162666,0 -1.162666,0 0,0 -0.317334,0.822666 -0.317334,0.822666 0,0 -0.499999,0 -0.499999,0 0,0 1.193333,-3.026666 1.193333,-3.026666 m 0.692,1.849333 c 0,0 -0.484,-1.301333 -0.484,-1.301333 0,0 -0.5,1.301333 -0.5,1.301333 0,0 0.984,0 0.984,0 m 3.193333,-1.426667 c 0,0 -1,0 -1,0 0,0 0,2.604 0,2.604 0,0 -0.48,0 -0.48,0 0,0 0,-2.604 0,-2.604 0,0 -1.005333,0 -1.005333,0 0,0 0,-0.422666 0,-0.422666 0,0 2.485333,0 2.485333,0 0,0 0,0.422666 0,0.422666 m 0.405333,2.604 c 0,0 0,-3.026666 0,-3.026666 0,0 0.474667,0 0.474667,0 0,0 0,3.026666 0,3.026666 0,0 -0.474667,0 -0.474667,0 m 2.401334,0.02133 c -0.213334,0 -0.410667,-0.04267 -0.588,-0.130667 -0.172,-0.084 -0.328,-0.198667 -0.453334,-0.344 -0.130666,-0.145333 -0.224,-0.306667 -0.297333,-0.494667 -0.068,-0.182666 -0.104,-0.369333 -0.104,-0.568 0,-0.197333 0.036,-0.390666 0.114667,-0.577333 0.07333,-0.188 0.172,-0.349333 0.302666,-0.490667 0.124,-0.145333 0.281334,-0.254666 0.457334,-0.337333 0.172,-0.084 0.370666,-0.125333 0.578666,-0.125333 0.213334,0 0.406667,0.04133 0.582667,0.129333 0.177333,0.08933 0.329333,0.209333 0.458667,0.354667 0.125333,0.145333 0.218666,0.308 0.292,0.494666 0.068,0.182667 0.104,0.369334 0.104,0.557334 0,0.202666 -0.036,0.396 -0.109334,0.584 -0.07333,0.181333 -0.172,0.342666 -0.301333,0.484 -0.130667,0.14 -0.286667,0.254666 -0.464,0.338666 -0.177333,0.08267 -0.365333,0.125334 -0.573333,0.125334 m -0.958667,-1.537334 c 0,0.146667 0.02133,0.281334 0.068,0.417334 0.04667,0.129333 0.109333,0.249333 0.193333,0.353333 0.08267,0.104 0.186667,0.182667 0.301334,0.245333 0.12,0.06267 0.256,0.09333 0.401333,0.09333 0.150667,0 0.286667,-0.036 0.406667,-0.09867 0.114666,-0.06267 0.213333,-0.145333 0.296,-0.254667 0.084,-0.104 0.146666,-0.218666 0.188,-0.349333 0.04133,-0.136 0.06267,-0.265333 0.06267,-0.406667 0,-0.14 -0.02133,-0.281333 -0.068,-0.416 -0.04667,-0.130666 -0.109333,-0.245333 -0.192,-0.349333 -0.084,-0.09867 -0.182666,-0.182667 -0.302666,-0.24 C 57.938864,15.530666 57.808197,15.5 57.662864,15.5 c -0.156,0 -0.292,0.03067 -0.406667,0.09333 -0.118666,0.068 -0.218666,0.152 -0.301333,0.250667 -0.084,0.104 -0.146667,0.224 -0.188,0.353333 -0.04667,0.130667 -0.068,0.266667 -0.068,0.401333 M 60.069531,15.984 c 0,0 0,2.130666 0,2.130666 0,0 -0.474667,0 -0.474667,0 0,0 0,-3.026666 0,-3.026666 0,0 0.376,0 0.376,0 0,0 1.718667,2.182666 1.718667,2.182666 0,0 0,-2.182666 0,-2.182666 0,0 0.478666,0 0.478666,0 0,0 0,3.026666 0,3.026666 0,0 -0.396,0 -0.396,0 0,0 -1.702666,-2.130666 -1.702666,-2.130666"
       style="fill:#323539;fill-opacity:1;fill-rule:nonzero;stroke:none;stroke-width:1.33333" />
    <path
       id="path4"
       d="m 15.594865,22.478666 c 0,0 0,-3 0,-3 0,0 1.250667,0 1.250667,0 0.134666,0 0.254666,0.032 0.369333,0.08933 0.114667,0.05733 0.213333,0.129333 0.292,0.218666 0.08267,0.09333 0.145333,0.197334 0.192,0.312 0.048,0.12 0.068,0.24 0.068,0.36 0,0.125334 -0.02,0.244 -0.06267,0.364 -0.04667,0.114667 -0.104,0.218667 -0.181333,0.313334 -0.07867,0.088 -0.172,0.161333 -0.286667,0.218666 -0.109333,0.052 -0.229333,0.08267 -0.365333,0.08267 0,0 -0.806667,0 -0.806667,0 0,0 0,1.041333 0,1.041333 0,0 -0.469333,0 -0.469333,0 M 16.064198,21.016 c 0,0 0.776,0 0.776,0 0.068,0 0.130667,-0.01067 0.182667,-0.04267 0.05733,-0.02533 0.104,-0.06667 0.14,-0.113333 0.04133,-0.05333 0.07333,-0.110667 0.09333,-0.177334 0.02133,-0.068 0.032,-0.146666 0.032,-0.224 0,-0.08933 -0.01067,-0.161333 -0.03733,-0.229333 -0.02533,-0.068 -0.056,-0.125333 -0.104,-0.177333 -0.04667,-0.04667 -0.09333,-0.08267 -0.150667,-0.114667 -0.05733,-0.02533 -0.12,-0.036 -0.182666,-0.036 0,0 -0.749334,0 -0.749334,0 0,0 0,1.114667 0,1.114667 m 2.182667,1.462666 c 0,0 0,-3 0,-3 0,0 1.296,0 1.296,0 0.130667,0 0.256,0.032 0.370667,0.08933 0.114666,0.05733 0.208,0.129333 0.290666,0.218666 0.07867,0.09333 0.146667,0.197334 0.193334,0.312 0.04133,0.12 0.068,0.24 0.068,0.36 0,0.09867 -0.016,0.197334 -0.04267,0.290667 -0.03067,0.08933 -0.06667,0.177333 -0.118667,0.256 -0.048,0.07733 -0.109333,0.145333 -0.182666,0.202667 -0.07333,0.05733 -0.156,0.104 -0.24,0.130666 0,0 0.698666,1.14 0.698666,1.14 0,0 -0.532,0 -0.532,0 0,0 -0.645333,-1.041333 -0.645333,-1.041333 0,0 -0.688,0 -0.688,0 0,0 0,1.041333 0,1.041333 0,0 -0.468,0 -0.468,0 m 0.468,-1.462666 c 0,0 0.822667,0 0.822667,0 0.068,0 0.125333,-0.01067 0.182666,-0.04267 0.052,-0.03067 0.09867,-0.072 0.141334,-0.124 0.036,-0.052 0.06667,-0.109333 0.09333,-0.177333 0.02,-0.068 0.03067,-0.141334 0.03067,-0.213334 0,-0.07867 -0.01467,-0.152 -0.04133,-0.218666 -0.02667,-0.068 -0.05733,-0.125334 -0.104,-0.177334 -0.04133,-0.04667 -0.09333,-0.08933 -0.150666,-0.12 -0.05733,-0.02533 -0.114667,-0.04133 -0.177334,-0.04133 0,0 -0.797333,0 -0.797333,0 0,0 0,1.114667 0,1.114667 M 22.293532,22.5 c -0.213334,0 -0.406667,-0.04133 -0.584,-0.130667 -0.172,-0.08267 -0.322667,-0.197333 -0.448,-0.338667 -0.124,-0.145333 -0.224,-0.306666 -0.290667,-0.489333 -0.068,-0.181333 -0.105333,-0.369333 -0.105333,-0.562667 0,-0.197333 0.03733,-0.390666 0.109333,-0.572 0.07333,-0.182666 0.172,-0.344 0.297333,-0.485333 0.130667,-0.14 0.281334,-0.254667 0.458667,-0.337333 0.172,-0.084 0.364,-0.125334 0.573333,-0.125334 0.208,0 0.4,0.04667 0.577334,0.134667 0.172,0.08933 0.322666,0.204 0.448,0.349333 0.125333,0.14 0.223999,0.308 0.291999,0.484 0.068,0.182667 0.09867,0.370667 0.09867,0.557334 0,0.198666 -0.03067,0.390666 -0.104,0.573333 -0.07333,0.182667 -0.172,0.344 -0.302666,0.484 -0.124003,0.141333 -0.276003,0.250667 -0.452003,0.333333 -0.177334,0.084 -0.365334,0.125334 -0.568,0.125334 m -0.948,-1.521334 c 0,0.141334 0.02,0.276 0.068,0.412 0.04133,0.130667 0.109333,0.249334 0.186666,0.349334 0.084,0.104 0.182667,0.181333 0.302667,0.244 0.12,0.05733 0.249333,0.08933 0.396,0.08933 0.150667,0 0.281333,-0.032 0.4,-0.09467 0.114667,-0.06133 0.214667,-0.145333 0.292,-0.249333 0.084,-0.104 0.146667,-0.224 0.188,-0.354667 0.04133,-0.124 0.06267,-0.26 0.06267,-0.396 0,-0.14 -0.02133,-0.281333 -0.068,-0.410666 -0.04667,-0.130667 -0.109334,-0.245334 -0.193334,-0.344 -0.08267,-0.09867 -0.181333,-0.182667 -0.296,-0.24 -0.114666,-0.06267 -0.245333,-0.09333 -0.385333,-0.09333 -0.152,0 -0.286667,0.03067 -0.406667,0.09333 -0.114666,0.06267 -0.213333,0.146666 -0.297333,0.250666 -0.07733,0.09867 -0.14,0.218667 -0.186667,0.349334 -0.04267,0.129333 -0.06267,0.26 -0.06267,0.394666 m 2.713333,-0.02 c 0,-0.182666 0.03067,-0.36 0.09333,-0.537333 0.068,-0.181333 0.161333,-0.338667 0.286667,-0.484 0.125333,-0.14 0.276,-0.254667 0.453333,-0.344 0.177333,-0.08267 0.38,-0.129333 0.609333,-0.129333 0.270667,0 0.5,0.06267 0.693334,0.181333 0.192,0.12 0.337333,0.281333 0.437333,0.474667 0,0 -0.370667,0.249333 -0.370667,0.249333 -0.04133,-0.09333 -0.09333,-0.166667 -0.150666,-0.229333 -0.05733,-0.06133 -0.12,-0.109334 -0.193334,-0.150667 -0.06667,-0.03067 -0.14,-0.06267 -0.218666,-0.072 -0.072,-0.016 -0.145334,-0.02667 -0.218667,-0.02667 -0.156,0 -0.290667,0.03067 -0.405333,0.09333 -0.12,0.06267 -0.218667,0.152 -0.297334,0.250666 -0.08267,0.109334 -0.14,0.224 -0.182666,0.353334 -0.036,0.130666 -0.05733,0.261333 -0.05733,0.385333 0,0.152 0.02133,0.286667 0.068,0.422667 0.04667,0.130666 0.114667,0.244 0.198667,0.349333 0.088,0.09867 0.186667,0.181333 0.306667,0.238667 0.114666,0.06267 0.245333,0.09467 0.385333,0.09467 0.07333,0 0.145333,-0.01067 0.224,-0.02667 0.07867,-0.02133 0.150667,-0.052 0.224,-0.088 0.068,-0.04267 0.136,-0.09467 0.193333,-0.157334 0.06133,-0.06133 0.113334,-0.134666 0.150667,-0.222666 0,0 0.390667,0.222666 0.390667,0.222666 -0.04667,0.114667 -0.114667,0.214667 -0.204,0.297334 -0.08267,0.08933 -0.181334,0.161333 -0.290667,0.218666 -0.109333,0.05733 -0.224,0.104 -0.349333,0.136 -0.12,0.03067 -0.24,0.04667 -0.354667,0.04667 -0.213333,0 -0.4,-0.04667 -0.577333,-0.136 -0.172,-0.088 -0.322667,-0.208 -0.448,-0.353333 -0.125334,-0.146667 -0.224,-0.308 -0.292,-0.494667 -0.07333,-0.182667 -0.104,-0.370667 -0.104,-0.562667 m 5.136,1.104 c 0,0 0,0.416 0,0.416 0,0 -2.042667,0 -2.042667,0 0,0 0,-3 0,-3 0,0 2.005333,0 2.005333,0 0,0 0,0.422667 0,0.422667 0,0 -1.536,0 -1.536,0 0,0 0,0.848 0,0.848 0,0 1.328,0 1.328,0 0,0 0,0.396 0,0.396 0,0 -1.328,0 -1.328,0 0,0 0,0.917333 0,0.917333 0,0 1.573334,0 1.573334,0 m 2.224,-1.874666 c -0.032,-0.032 -0.07333,-0.06267 -0.125334,-0.1 -0.052,-0.036 -0.114666,-0.06667 -0.188,-0.09867 -0.068,-0.03067 -0.145333,-0.05733 -0.234666,-0.07733 -0.08267,-0.02133 -0.172,-0.032 -0.26,-0.032 -0.197334,0 -0.344,0.04133 -0.437334,0.109333 -0.09333,0.07867 -0.141333,0.177333 -0.141333,0.308 0,0.072 0.016,0.129333 0.04267,0.176 0.03067,0.048 0.07733,0.08933 0.14,0.125333 0.05733,0.03733 0.136,0.068 0.229333,0.09467 0.09333,0.02533 0.197333,0.052 0.322667,0.08267 0.150666,0.036 0.286666,0.07867 0.406666,0.125333 0.125334,0.04667 0.224,0.09867 0.306667,0.161333 0.08933,0.068 0.152,0.145334 0.198667,0.24 0.04667,0.09333 0.068,0.208 0.068,0.342667 0,0.152 -0.02667,0.281333 -0.084,0.396 -0.05733,0.109333 -0.134667,0.198667 -0.234667,0.265333 -0.09867,0.068 -0.218667,0.12 -0.348,0.152 -0.130667,0.03067 -0.272,0.052 -0.422667,0.052 -0.229333,0 -0.448,-0.03733 -0.656,-0.104 -0.213333,-0.07333 -0.401333,-0.172 -0.573333,-0.302666 0,0 0.213333,-0.406667 0.213333,-0.406667 0.03733,0.03733 0.08933,0.07867 0.157334,0.12 0.06667,0.04667 0.150666,0.08933 0.238666,0.125333 0.09467,0.04133 0.193334,0.07333 0.297334,0.09867 0.104,0.02667 0.218666,0.04133 0.333333,0.04133 0.182667,0 0.322667,-0.036 0.426667,-0.09867 0.1,-0.06267 0.152,-0.161334 0.152,-0.286667 0,-0.07733 -0.02133,-0.14 -0.05733,-0.192 -0.03733,-0.04667 -0.09467,-0.09333 -0.161333,-0.130667 -0.07333,-0.036 -0.157333,-0.072 -0.256,-0.104 -0.104,-0.03067 -0.218667,-0.06267 -0.344,-0.09867 -0.150667,-0.036 -0.281333,-0.07867 -0.390667,-0.12 -0.109333,-0.04667 -0.202666,-0.09867 -0.270666,-0.161334 -0.07733,-0.06267 -0.129334,-0.136 -0.166667,-0.218666 -0.04133,-0.084 -0.05733,-0.182667 -0.05733,-0.302667 0,-0.145333 0.02667,-0.276 0.084,-0.385333 0.05733,-0.114667 0.129333,-0.213334 0.229333,-0.290667 0.09333,-0.07333 0.208,-0.136 0.338667,-0.172 0.134666,-0.04267 0.276,-0.06267 0.432,-0.06267 0.197333,0 0.385333,0.036 0.557333,0.09867 0.166667,0.068 0.317333,0.145333 0.448,0.24 0,0 -0.213333,0.390667 -0.213333,0.390667 m 2.598666,0 c -0.032,-0.032 -0.068,-0.06267 -0.125333,-0.1 -0.052,-0.036 -0.114667,-0.06667 -0.182667,-0.09867 -0.072,-0.03067 -0.150666,-0.05733 -0.238666,-0.07733 -0.084,-0.02133 -0.172,-0.032 -0.261334,-0.032 -0.197333,0 -0.344,0.04133 -0.437333,0.109333 -0.09333,0.07867 -0.14,0.177333 -0.14,0.308 0,0.072 0.01467,0.129333 0.04667,0.176 0.02533,0.048 0.07333,0.08933 0.134666,0.125333 0.05733,0.03733 0.136,0.068 0.229334,0.09467 0.09467,0.02533 0.198666,0.052 0.322666,0.08267 0.152,0.036 0.286667,0.07867 0.406667,0.125333 0.125333,0.04667 0.229333,0.09867 0.313333,0.161333 0.08267,0.068 0.145334,0.145334 0.192,0.24 0.04667,0.09333 0.068,0.208 0.068,0.342667 0,0.152 -0.02667,0.281333 -0.084,0.396 -0.05733,0.109333 -0.134666,0.198667 -0.233333,0.265333 -0.1,0.068 -0.22,0.12 -0.349333,0.152 -0.130667,0.03067 -0.270667,0.052 -0.422667,0.052 -0.228,0 -0.442667,-0.03733 -0.656,-0.104 -0.208,-0.07333 -0.401333,-0.172 -0.572,-0.302666 0,0 0.213333,-0.406667 0.213333,-0.406667 0.036,0.03733 0.088,0.07867 0.156,0.12 0.068,0.04667 0.150667,0.08933 0.24,0.125333 0.09333,0.04133 0.192,0.07333 0.296,0.09867 0.104,0.02667 0.218667,0.04133 0.333334,0.04133 0.182666,0 0.322666,-0.036 0.428,-0.09867 0.09867,-0.06267 0.150666,-0.161334 0.150666,-0.286667 0,-0.07733 -0.02133,-0.14 -0.05733,-0.192 -0.036,-0.04667 -0.09333,-0.09333 -0.161333,-0.130667 -0.07333,-0.036 -0.156,-0.072 -0.256,-0.104 C 33.272198,21.24 33.157531,21.208 33.028198,21.172 c -0.152,-0.036 -0.281333,-0.07867 -0.390667,-0.12 -0.109333,-0.04667 -0.198666,-0.09867 -0.272,-0.161334 -0.07733,-0.06267 -0.129333,-0.136 -0.166666,-0.218666 -0.04133,-0.084 -0.05733,-0.182667 -0.05733,-0.302667 0,-0.145333 0.02667,-0.276 0.084,-0.385333 0.05733,-0.114667 0.130667,-0.213334 0.229334,-0.290667 0.09333,-0.07333 0.208,-0.136 0.344,-0.172 0.129333,-0.04267 0.270666,-0.06267 0.426666,-0.06267 0.197334,0 0.385334,0.036 0.557334,0.09867 0.166666,0.068 0.317333,0.145333 0.448,0.24 0,0 -0.213334,0.390667 -0.213334,0.390667 m 0.838667,2.290666 c 0,0 0,-3 0,-3 0,0 0.468,0 0.468,0 0,0 0,3 0,3 0,0 -0.468,0 -0.468,0 m 1.645333,-2.109333 c 0,0 0,2.109333 0,2.109333 0,0 -0.469333,0 -0.469333,0 0,0 0,-3 0,-3 0,0 0.370667,0 0.370667,0 0,0 1.702666,2.161334 1.702666,2.161334 0,0 0,-2.156 0,-2.156 0,0 0.474667,0 0.474667,0 0,0 0,2.994666 0,2.994666 0,0 -0.390667,0 -0.390667,0 0,0 -1.688,-2.109333 -1.688,-2.109333 M 41.370864,22.104 c -0.249333,0.265333 -0.541333,0.396 -0.869333,0.396 -0.197333,0 -0.38,-0.04133 -0.552,-0.125334 -0.172,-0.08267 -0.317333,-0.192 -0.448,-0.333333 -0.125333,-0.14 -0.224,-0.306667 -0.292,-0.489333 -0.072,-0.188 -0.109333,-0.38 -0.109333,-0.582667 0,-0.204 0.03733,-0.396 0.109333,-0.578667 0.068,-0.182666 0.166667,-0.344 0.292,-0.484 0.130667,-0.136 0.276,-0.245333 0.453333,-0.322666 0.172,-0.084 0.358667,-0.125334 0.562667,-0.125334 0.286667,0 0.525333,0.06267 0.718667,0.181334 0.192,0.12 0.338666,0.277333 0.437333,0.474666 0,0 -0.36,0.26 -0.36,0.26 -0.08267,-0.161333 -0.192,-0.286666 -0.338667,-0.364 -0.14,-0.084 -0.296,-0.125333 -0.468,-0.125333 -0.141333,0 -0.265333,0.032 -0.38,0.09333 -0.114666,0.05733 -0.213333,0.141334 -0.297333,0.24 -0.07733,0.09867 -0.14,0.213334 -0.182667,0.349334 -0.04667,0.129333 -0.06667,0.270666 -0.06667,0.410666 0,0.152 0.02533,0.297334 0.072,0.428 0.052,0.129334 0.114666,0.249334 0.204,0.342667 0.08267,0.1 0.186666,0.177333 0.301333,0.234667 0.12,0.05733 0.245333,0.08933 0.38,0.08933 0.152,0 0.297333,-0.03733 0.437333,-0.104 0.136,-0.07333 0.272,-0.182667 0.396,-0.333333 0,0 0,-0.324 0,-0.324 0,0 -0.624,0 -0.624,0 0,0 0,-0.348 0,-0.348 0,0 1.02,0 1.02,0 0,0 0,1.514666 0,1.514666 0,0 -0.396,0 -0.396,0 0,0 0,-0.374666 0,-0.374666 m 3.766667,-1.916 c -0.032,-0.032 -0.068,-0.06267 -0.125333,-0.1 -0.052,-0.036 -0.114667,-0.06667 -0.182667,-0.09867 -0.07333,-0.03067 -0.150667,-0.05733 -0.234667,-0.07733 -0.088,-0.02133 -0.176,-0.032 -0.265333,-0.032 -0.197333,0 -0.344,0.04133 -0.437333,0.109333 -0.09333,0.07867 -0.14,0.177333 -0.14,0.308 0,0.072 0.01467,0.129333 0.04133,0.176 0.03067,0.048 0.07733,0.08933 0.14,0.125333 0.06267,0.03733 0.136,0.068 0.229333,0.09467 0.09333,0.02533 0.198667,0.052 0.322667,0.08267 0.152,0.036 0.286667,0.07867 0.412,0.125333 0.12,0.04667 0.224,0.09867 0.306667,0.161333 0.084,0.068 0.146666,0.145334 0.193333,0.24 0.04667,0.09333 0.068,0.208 0.068,0.342667 0,0.152 -0.02667,0.281333 -0.084,0.396 -0.05733,0.109333 -0.134667,0.198667 -0.234667,0.265333 -0.09867,0.068 -0.213333,0.12 -0.348,0.152 -0.130666,0.03067 -0.270666,0.052 -0.422666,0.052 -0.224,0 -0.442667,-0.03733 -0.656,-0.104 -0.208,-0.07333 -0.401334,-0.172 -0.573334,-0.302666 0,0 0.214667,-0.406667 0.214667,-0.406667 0.036,0.03733 0.088,0.07867 0.156,0.12 0.072,0.04667 0.150667,0.08933 0.238667,0.125333 0.09467,0.04133 0.193333,0.07333 0.297333,0.09867 0.104,0.02667 0.218667,0.04133 0.333333,0.04133 0.182667,0 0.322667,-0.036 0.426667,-0.09867 0.1,-0.06267 0.152,-0.161334 0.152,-0.286667 0,-0.07733 -0.02133,-0.14 -0.05733,-0.192 -0.03733,-0.04667 -0.09467,-0.09333 -0.161334,-0.130667 -0.07333,-0.036 -0.157333,-0.072 -0.256,-0.104 -0.09867,-0.03067 -0.218666,-0.06267 -0.344,-0.09867 -0.150666,-0.036 -0.276,-0.07867 -0.390666,-0.12 -0.109334,-0.04667 -0.197334,-0.09867 -0.270667,-0.161334 -0.072,-0.06267 -0.129333,-0.136 -0.166667,-0.218666 -0.036,-0.084 -0.05733,-0.182667 -0.05733,-0.302667 0,-0.145333 0.02667,-0.276 0.084,-0.385333 0.05733,-0.114667 0.129333,-0.213334 0.229333,-0.290667 0.09333,-0.07333 0.208,-0.136 0.342667,-0.172 0.130667,-0.04267 0.272,-0.06267 0.428,-0.06267 0.197333,0 0.385333,0.036 0.557333,0.09867 0.166667,0.068 0.317334,0.145333 0.448,0.24 0,0 -0.213333,0.390667 -0.213333,0.390667 m 0.994667,-0.709334 c 0,0 0.817333,1.505334 0.817333,1.505334 0,0 0.833333,-1.505334 0.833333,-1.505334 0,0 0.516,0 0.516,0 0,0 -1.114666,1.928 -1.114666,1.928 0,0 0,1.072 0,1.072 0,0 -0.469334,0 -0.469334,0 0,0 0,-1.082666 0,-1.082666 0,0 -1.104,-1.917334 -1.104,-1.917334 0,0 0.521334,0 0.521334,0 M 50.386864,20.188 c -0.03067,-0.032 -0.068,-0.06267 -0.125333,-0.1 -0.052,-0.036 -0.114667,-0.06667 -0.181333,-0.09867 -0.07333,-0.03067 -0.152,-0.05733 -0.24,-0.07733 -0.084,-0.02133 -0.172,-0.032 -0.26,-0.032 -0.198667,0 -0.344,0.04133 -0.438667,0.109333 -0.09333,0.07867 -0.14,0.177333 -0.14,0.308 0,0.072 0.016,0.129333 0.04133,0.176 0.032,0.048 0.07867,0.08933 0.141334,0.125333 0.05733,0.03733 0.134666,0.068 0.229333,0.09467 0.09333,0.02533 0.197333,0.052 0.322667,0.08267 0.150666,0.036 0.286666,0.07867 0.405333,0.125333 0.125333,0.04667 0.224,0.09867 0.313333,0.161333 0.08267,0.068 0.145333,0.145334 0.192,0.24 0.048,0.09333 0.068,0.208 0.068,0.342667 0,0.152 -0.02533,0.281333 -0.08267,0.396 -0.05733,0.109333 -0.136,0.198667 -0.234666,0.265333 -0.09867,0.068 -0.218667,0.12 -0.349333,0.152 -0.130667,0.03067 -0.270667,0.052 -0.421334,0.052 -0.229333,0 -0.448,-0.03733 -0.656,-0.104 -0.209333,-0.07333 -0.401333,-0.172 -0.573333,-0.302666 0,0 0.213333,-0.406667 0.213333,-0.406667 0.036,0.03733 0.088,0.07867 0.156,0.12 0.068,0.04667 0.150667,0.08933 0.24,0.125333 0.09333,0.04133 0.192,0.07333 0.297334,0.09867 0.104,0.02667 0.218666,0.04133 0.333333,0.04133 0.181333,0 0.322667,-0.036 0.426667,-0.09867 0.09867,-0.06267 0.150666,-0.161334 0.150666,-0.286667 0,-0.07733 -0.02,-0.14 -0.05733,-0.192 -0.036,-0.04667 -0.09333,-0.09333 -0.161333,-0.130667 -0.07333,-0.036 -0.156,-0.072 -0.254667,-0.104 -0.104,-0.03067 -0.218667,-0.06267 -0.344,-0.09867 -0.150667,-0.036 -0.276,-0.07867 -0.390667,-0.12 -0.109333,-0.04667 -0.202666,-0.09867 -0.270666,-0.161334 -0.07333,-0.06267 -0.130667,-0.136 -0.166667,-0.218666 -0.04133,-0.084 -0.05733,-0.182667 -0.05733,-0.302667 0,-0.145333 0.02533,-0.276 0.08267,-0.385333 0.05733,-0.114667 0.130667,-0.213334 0.229334,-0.290667 0.09333,-0.07333 0.208,-0.136 0.338666,-0.172 0.136,-0.04267 0.276,-0.06267 0.432,-0.06267 0.198667,0 0.385334,0.036 0.557334,0.09867 0.166666,0.068 0.318666,0.145333 0.447999,0.24 0,0 -0.213333,0.390667 -0.213333,0.390667 m 3,-0.286667 c 0,0 -0.989333,0 -0.989333,0 0,0 0,2.577333 0,2.577333 0,0 -0.474667,0 -0.474667,0 0,0 0,-2.577333 0,-2.577333 0,0 -0.994667,0 -0.994667,0 0,0 0,-0.422667 0,-0.422667 0,0 2.458667,0 2.458667,0 0,0 0,0.422667 0,0.422667 m 2.478667,2.161333 c 0,0 0,0.416 0,0.416 0,0 -2.041334,0 -2.041334,0 0,0 0,-3 0,-3 0,0 2.005334,0 2.005334,0 0,0 0,0.422667 0,0.422667 0,0 -1.536,0 -1.536,0 0,0 0,0.848 0,0.848 0,0 1.328,0 1.328,0 0,0 0,0.396 0,0.396 0,0 -1.328,0 -1.328,0 0,0 0,0.917333 0,0.917333 0,0 1.572,0 1.572,0 m 3.026666,0.416 c 0,0 0,-2.156 0,-2.156 0,0 -0.885333,1.630667 -0.885333,1.630667 0,0 -0.26,0 -0.26,0 0,0 -0.885333,-1.630667 -0.885333,-1.630667 0,0 0,2.156 0,2.156 0,0 -0.469334,0 -0.469334,0 0,0 0,-3 0,-3 0,0 0.5,0 0.5,0 0,0 0.984,1.833334 0.984,1.833334 0,0 0.989334,-1.833334 0.989334,-1.833334 0,0 0.5,0 0.5,0 0,0 0,3 0,3 0,0 -0.473334,0 -0.473334,0 M 61.834864,20.188 c -0.02667,-0.032 -0.068,-0.06267 -0.12,-0.1 -0.052,-0.036 -0.114667,-0.06667 -0.186667,-0.09867 -0.07333,-0.03067 -0.152,-0.05733 -0.234666,-0.07733 -0.084,-0.02133 -0.172,-0.032 -0.261334,-0.032 -0.197333,0 -0.342666,0.04133 -0.437333,0.109333 -0.09333,0.07867 -0.14,0.177333 -0.14,0.308 0,0.072 0.01067,0.129333 0.04133,0.176 0.032,0.048 0.07333,0.08933 0.136,0.125333 0.06267,0.03733 0.14,0.068 0.233334,0.09467 0.08933,0.02533 0.198666,0.052 0.324,0.08267 0.145333,0.036 0.285333,0.07867 0.405333,0.125333 0.12,0.04667 0.224,0.09867 0.308,0.161333 0.08267,0.068 0.150667,0.145334 0.197333,0.24 0.04667,0.09333 0.068,0.208 0.068,0.342667 0,0.152 -0.03067,0.281333 -0.088,0.396 -0.05733,0.109333 -0.136,0.198667 -0.234666,0.265333 -0.09867,0.068 -0.213334,0.12 -0.344,0.152 -0.130667,0.03067 -0.270667,0.052 -0.421334,0.052 -0.229333,0 -0.448,-0.03733 -0.657333,-0.104 -0.213333,-0.07333 -0.4,-0.172 -0.572,-0.302666 0,0 0.213333,-0.406667 0.213333,-0.406667 0.036,0.03733 0.088,0.07867 0.156,0.12 0.068,0.04667 0.145334,0.08933 0.24,0.125333 0.088,0.04133 0.186667,0.07333 0.296,0.09867 0.105334,0.02667 0.214667,0.04133 0.329334,0.04133 0.186666,0 0.328,-0.036 0.426666,-0.09867 0.104,-0.06267 0.150667,-0.161334 0.150667,-0.286667 0,-0.07733 -0.016,-0.14 -0.05733,-0.192 -0.036,-0.04667 -0.088,-0.09333 -0.161334,-0.130667 -0.068,-0.036 -0.150666,-0.072 -0.254666,-0.104 -0.1,-0.03067 -0.214667,-0.06267 -0.344,-0.09867 -0.146667,-0.036 -0.276,-0.07867 -0.385334,-0.12 -0.109333,-0.04667 -0.204,-0.09867 -0.276,-0.161334 -0.07333,-0.06267 -0.125333,-0.136 -0.166666,-0.218666 -0.03733,-0.084 -0.05733,-0.182667 -0.05733,-0.302667 0,-0.145333 0.03067,-0.276 0.088,-0.385333 0.052,-0.114667 0.130667,-0.213334 0.224,-0.290667 0.09867,-0.07333 0.213334,-0.136 0.344,-0.172 0.130667,-0.04267 0.276,-0.06267 0.426667,-0.06267 0.204,0 0.385333,0.036 0.557333,0.09867 0.172,0.068 0.322667,0.145333 0.448,0.24 0,0 -0.213333,0.390667 -0.213333,0.390667"
       style="fill:#323539;fill-opacity:1;fill-rule:nonzero;stroke:none;stroke-width:1.33333" />
  </g>
</svg>
